<svg xmlns="http://www.w3.org/2000/svg" version="1.1" xmlns:xlink="http://www.w3.org/1999/xlink" viewBox="0 0 56.054594639947496 16.892480870656836"><g transform="matrix(0.7353699841665093,0,0,0.7353699841665093,9.651992873689029,6.225529675024765)"><rect width="62.13351759916452" height="62.13351759916452" x="-6.078922959217028" y="-28.04690374958226" fill="#20242d"></rect><g transform="matrix(1,0,0,1,0,0)" clip-path="url(#SvgjsClipPath86290)"><g clip-path="url(#SvgjsClipPath8628528bbb216-5913-438b-a4e2-76dd5b6b331c)"><path d=" M 34.11156766509569 7.385829883653877 L 47.2980266692373 7.385829883653877 C 47.47289058211832 7.385829883653877 47.61445758346713 7.185827905112803 47.61445758346713 6.938857435470012 L 47.61445758346713 -1.9399514575360388 C 47.61445758346713 -2.1867014178309354 47.47289058211832 -2.3869239057198914 47.2980266692373 -2.3869239057198914 L 34.11156766509569 -2.3869239057198914 C 33.936703752214676 -2.3869239057198914 33.794475222822186 -2.186701417830922 33.794475222822186 -1.9399514575360388 L 33.794475222822186 6.938857435470012 C 33.794475222822186 7.185827905112803 33.936703752214676 7.385829883653877 34.11156766509569 7.385829883653877 Z M 34.34530757386476 -1.8504246622905394 L 47.10089131221886 -1.8504246622905394 L 47.10089131221886 6.847566565441329 L 34.34530757386476 6.847566565441329 Z" fill="#05bfce" transform="matrix(1,0,0,1,0,0)" fill-rule="nonzero"></path></g><g clip-path="url(#SvgjsClipPath8628528bbb216-5913-438b-a4e2-76dd5b6b331c)"><path d=" M 49.97523066203469 8.070511408868931 C 49.9757572860901 8.06744673678838 49.9757572860901 8.064314688337852 49.97523066203469 8.061250016257315 L 49.97523066203469 8.055516773212037 L 49.97523066203469 7.560693796534891 L 31.44516863034519 7.560693796534891 L 31.433040616210942 8.043609268425687 C 31.433932767854532 8.048597478445565 31.43511075853275 8.053530314410573 31.43656876577727 8.058383394734683 C 31.44693270512836 8.133136063671198 31.54682343972495 8.289697700676886 32.14219867904237 8.426634005719905 L 49.24424217376163 8.426634005719905 C 49.24424217376163 8.426634005719905 49.825063796117945 8.358717126568138 49.97655371812205 8.076465161262103 Z M 41.93435729103094 7.863012112499411 C 41.896641063577164 7.916702252006833 41.8326347217472 7.945534699251248 41.76743171467416 7.938205800131727 L 39.61790659139035 7.938205800131727 C 39.55963458594344 7.93675912781267 39.50548925766829 7.9078052815749205 39.47192940308362 7.860145490976779 C 39.43149910536578 7.801490034794676 39.420202281032985 7.727532407867691 39.441278603726175 7.659481984392021 L 41.97934119800159 7.659481984392021 C 41.9913750180512 7.730593508195446 41.97524009257519 7.803596136697235 41.93435729103093 7.863012112499411 Z" fill="#05bfce" transform="matrix(1,0,0,1,0,0)" fill-rule="nonzero"></path></g></g><g><path d=" M 0.12266100000000002 2.63907 Q 0.08920800000000001 2.63907 0.06690600000000001 2.6149095 Q 0.044604000000000005 2.5907489999999997 0.044604000000000005 2.561013 Q 0.044604000000000005 2.5424279999999997 0.04832100000000001 2.52756 L 0.9329670000000002 0.13752899999999935 Q 0.9441180000000001 0.09664199999999923 0.9775710000000002 0.06690599999999947 Q 1.0110240000000001 0.03716999999999926 1.0704960000000001 0.03716999999999926 L 1.5462720000000003 0.03716999999999926 Q 1.6057440000000003 0.03716999999999926 1.6391970000000002 0.06690599999999947 Q 1.6726500000000004 0.09664199999999923 1.6838010000000003 0.13752899999999935 L 2.5684470000000004 2.52756 Q 2.5721640000000003 2.5424279999999997 2.5721640000000003 2.561013 Q 2.5721640000000003 2.5907489999999997 2.5498620000000005 2.6149095 Q 2.5275600000000003 2.63907 2.4941070000000005 2.63907 L 2.1075390000000005 2.63907 Q 2.0517840000000005 2.63907 2.0257650000000003 2.613051 Q 1.9997460000000005 2.5870319999999998 1.9923120000000003 2.56473 L 1.8324810000000002 2.1484259999999997 L 0.7842870000000002 2.1484259999999997 L 0.6244560000000001 2.56473 Q 0.6170220000000001 2.5870319999999998 0.5910030000000001 2.613051 Q 0.5649840000000002 2.63907 0.509229 2.63907 L 0.12266100000000002 2.63907 M 0.9218160000000002 1.6689329999999996 L 1.6912350000000003 1.6689329999999996 L 1.3083840000000002 0.5984369999999992 L 0.9218160000000002 1.6689329999999996 M 3.1036187724609383 2.63907 Q 3.062731772460938 2.63907 3.0367127724609384 2.613051 Q 3.010693772460938 2.5870319999999998 3.010693772460938 2.5461449999999997 L 3.010693772460938 0.1300949999999994 Q 3.010693772460938 0.08920799999999929 3.0367127724609384 0.0631889999999995 Q 3.062731772460938 0.03716999999999926 3.1036187724609383 0.03716999999999926 L 4.207567772460939 0.03716999999999926 Q 4.516078772460938 0.03716999999999926 4.713079772460938 0.12637799999999944 Q 4.9100807724609385 0.21558599999999917 5.004864272460939 0.3791339999999992 Q 5.099647772460939 0.5426819999999992 5.099647772460939 0.7619849999999995 Q 5.099647772460939 0.8995139999999995 5.049468272460938 1.0035899999999995 Q 4.999288772460939 1.1076659999999996 4.926807272460938 1.1745719999999995 Q 4.854325772460939 1.2414779999999996 4.787419772460939 1.2749309999999996 Q 4.932382772460938 1.3418369999999995 5.042034272460938 1.4960924999999996 Q 5.151685772460938 1.6503479999999997 5.151685772460938 1.8622169999999998 Q 5.151685772460938 2.0963879999999997 5.047609772460939 2.2710869999999996 Q 4.943533772460938 2.4457859999999996 4.739098772460938 2.5424279999999997 Q 4.534663772460938 2.63907 4.241020772460939 2.63907 L 3.1036187724609383 2.63907 M 3.6016967724609383 2.2041809999999997 L 4.170397772460938 2.2041809999999997 Q 4.352530772460939 2.2041809999999997 4.445455772460939 2.1019634999999997 Q 4.538380772460938 1.9997459999999996 4.538380772460938 1.8584999999999998 Q 4.538380772460938 1.7135369999999996 4.443597272460939 1.6150364999999995 Q 4.348813772460939 1.5165359999999997 4.170397772460938 1.5165359999999997 L 3.6016967724609383 1.5165359999999997 L 3.6016967724609383 2.2041809999999997 M 3.6016967724609383 1.0890809999999995 L 4.1369447724609385 1.0890809999999995 Q 4.311643772460938 1.0890809999999995 4.398993272460938 1.0017314999999996 Q 4.486342772460938 0.9143819999999996 4.486342772460938 0.7768529999999996 Q 4.486342772460938 0.6393239999999993 4.398993272460938 0.5556914999999996 Q 4.311643772460938 0.47205899999999934 4.1369447724609385 0.47205899999999934 L 3.6016967724609383 0.47205899999999934 L 3.6016967724609383 1.0890809999999995 M 5.805904996582032 2.63907 Q 5.765017996582032 2.63907 5.7389989965820325 2.613051 Q 5.712979996582032 2.5870319999999998 5.712979996582032 2.5461449999999997 L 5.712979996582032 0.1300949999999994 Q 5.712979996582032 0.08920799999999929 5.7389989965820325 0.0631889999999995 Q 5.765017996582032 0.03716999999999926 5.805904996582032 0.03716999999999926 L 6.790909996582032 0.03716999999999926 Q 7.255534996582033 0.03716999999999926 7.5231589965820325 0.25089749999999933 Q 7.790782996582033 0.4646249999999994 7.790782996582033 0.8660609999999995 Q 7.790782996582033 1.1374019999999996 7.660687996582032 1.3195349999999995 Q 7.530592996582032 1.5016679999999996 7.311289996582032 1.5908759999999995 L 7.835386996582033 2.520126 Q 7.8465379965820325 2.5424279999999997 7.8465379965820325 2.561013 Q 7.8465379965820325 2.5907489999999997 7.824235996582033 2.6149095 Q 7.801933996582033 2.63907 7.768480996582033 2.63907 L 7.355893996582033 2.63907 Q 7.288987996582033 2.63907 7.255534996582033 2.6037584999999996 Q 7.222081996582032 2.568447 7.207213996582032 2.5387109999999997 L 6.753739996582032 1.6875179999999996 L 6.303982996582032 1.6875179999999996 L 6.303982996582032 2.5461449999999997 Q 6.303982996582032 2.5870319999999998 6.277963996582033 2.613051 Q 6.251944996582033 2.63907 6.211057996582032 2.63907 L 5.805904996582032 2.63907 M 6.303982996582032 1.2154589999999996 L 6.779758996582032 1.2154589999999996 Q 6.984193996582032 1.2154589999999996 7.082694496582032 1.1225339999999995 Q 7.1811949965820325 1.0296089999999996 7.1811949965820325 0.8623439999999996 Q 7.1811949965820325 0.6950789999999993 7.084552996582032 0.5984369999999992 Q 6.987910996582032 0.5017949999999995 6.779758996582032 0.5017949999999995 L 6.303982996582032 0.5017949999999995 L 6.303982996582032 1.2154589999999996 M 8.214546405761721 2.63907 Q 8.18109340576172 2.63907 8.15879140576172 2.6149095 Q 8.13648940576172 2.5907489999999997 8.13648940576172 2.561013 Q 8.13648940576172 2.5424279999999997 8.14020640576172 2.52756 L 9.02485240576172 0.13752899999999935 Q 9.03600340576172 0.09664199999999923 9.06945640576172 0.06690599999999947 Q 9.102909405761721 0.03716999999999926 9.162381405761721 0.03716999999999926 L 9.63815740576172 0.03716999999999926 Q 9.69762940576172 0.03716999999999926 9.731082405761722 0.06690599999999947 Q 9.764535405761722 0.09664199999999923 9.775686405761721 0.13752899999999935 L 10.660332405761721 2.52756 Q 10.664049405761721 2.5424279999999997 10.664049405761721 2.561013 Q 10.664049405761721 2.5907489999999997 10.641747405761722 2.6149095 Q 10.61944540576172 2.63907 10.585992405761722 2.63907 L 10.199424405761722 2.63907 Q 10.14366940576172 2.63907 10.11765040576172 2.613051 Q 10.09163140576172 2.5870319999999998 10.08419740576172 2.56473 L 9.92436640576172 2.1484259999999997 L 8.876172405761722 2.1484259999999997 L 8.716341405761721 2.56473 Q 8.708907405761721 2.5870319999999998 8.682888405761721 2.613051 Q 8.656869405761721 2.63907 8.60111440576172 2.63907 L 8.214546405761721 2.63907 M 9.01370140576172 1.6689329999999996 L 9.783120405761721 1.6689329999999996 L 9.40026940576172 0.5984369999999992 L 9.01370140576172 1.6689329999999996 M 11.19550417822266 2.63907 Q 11.154617178222658 2.63907 11.128598178222658 2.613051 Q 11.102579178222658 2.5870319999999998 11.102579178222658 2.5461449999999997 L 11.102579178222658 0.1300949999999994 Q 11.102579178222658 0.08920799999999929 11.128598178222658 0.0631889999999995 Q 11.154617178222658 0.03716999999999926 11.19550417822266 0.03716999999999926 L 11.60065717822266 0.03716999999999926 Q 11.64154417822266 0.03716999999999926 11.66756317822266 0.0631889999999995 Q 11.693582178222659 0.08920799999999929 11.693582178222659 0.1300949999999994 L 11.693582178222659 1.0593449999999995 L 12.70088917822266 1.0593449999999995 L 12.70088917822266 0.1300949999999994 Q 12.70088917822266 0.08920799999999929 12.72690817822266 0.0631889999999995 Q 12.75292717822266 0.03716999999999926 12.793814178222659 0.03716999999999926 L 13.19896717822266 0.03716999999999926 Q 13.239854178222659 0.03716999999999926 13.265873178222659 0.0631889999999995 Q 13.291892178222659 0.08920799999999929 13.291892178222659 0.1300949999999994 L 13.291892178222659 2.5461449999999997 Q 13.291892178222659 2.5870319999999998 13.265873178222659 2.613051 Q 13.239854178222659 2.63907 13.19896717822266 2.63907 L 12.793814178222659 2.63907 Q 12.75292717822266 2.63907 12.72690817822266 2.613051 Q 12.70088917822266 2.5870319999999998 12.70088917822266 2.5461449999999997 L 12.70088917822266 1.5871589999999995 L 11.693582178222659 1.5871589999999995 L 11.693582178222659 2.5461449999999997 Q 11.693582178222659 2.5870319999999998 11.66756317822266 2.613051 Q 11.64154417822266 2.63907 11.60065717822266 2.63907 L 11.19550417822266 2.63907 M 13.808553363281254 2.63907 Q 13.775100363281252 2.63907 13.752798363281252 2.6149095 Q 13.730496363281253 2.5907489999999997 13.730496363281253 2.561013 Q 13.730496363281253 2.5424279999999997 13.734213363281253 2.52756 L 14.618859363281253 0.13752899999999935 Q 14.630010363281253 0.09664199999999923 14.663463363281252 0.06690599999999947 Q 14.696916363281254 0.03716999999999926 14.756388363281253 0.03716999999999926 L 15.232164363281253 0.03716999999999926 Q 15.291636363281253 0.03716999999999926 15.325089363281254 0.06690599999999947 Q 15.358542363281254 0.09664199999999923 15.369693363281254 0.13752899999999935 L 16.254339363281254 2.52756 Q 16.258056363281252 2.5424279999999997 16.258056363281252 2.561013 Q 16.258056363281252 2.5907489999999997 16.235754363281252 2.6149095 Q 16.213452363281252 2.63907 16.179999363281254 2.63907 L 15.793431363281254 2.63907 Q 15.737676363281253 2.63907 15.711657363281253 2.613051 Q 15.685638363281253 2.5870319999999998 15.678204363281253 2.56473 L 15.518373363281253 2.1484259999999997 L 14.470179363281254 2.1484259999999997 L 14.310348363281253 2.56473 Q 14.302914363281253 2.5870319999999998 14.276895363281254 2.613051 Q 14.250876363281254 2.63907 14.195121363281253 2.63907 L 13.808553363281254 2.63907 M 14.607708363281253 1.6689329999999996 L 15.377127363281254 1.6689329999999996 L 14.994276363281253 0.5984369999999992 L 14.607708363281253 1.6689329999999996 M 16.789511135742192 2.63907 Q 16.752341135742192 2.63907 16.724463635742193 2.613051 Q 16.696586135742194 2.5870319999999998 16.696586135742194 2.5461449999999997 L 16.696586135742194 0.1300949999999994 Q 16.696586135742194 0.08920799999999929 16.724463635742193 0.0631889999999995 Q 16.752341135742192 0.03716999999999926 16.789511135742192 0.03716999999999926 L 17.135192135742194 0.03716999999999926 Q 17.190947135742192 0.03716999999999926 17.218824635742195 0.06690599999999947 Q 17.246702135742193 0.09664199999999923 17.25785313574219 0.11150999999999955 L 17.941781135742193 1.3715729999999995 L 18.633143135742195 0.11150999999999955 Q 18.640577135742195 0.09664199999999923 18.668454635742194 0.06690599999999947 Q 18.696332135742193 0.03716999999999926 18.752087135742194 0.03716999999999926 L 19.097768135742193 0.03716999999999926 Q 19.138655135742194 0.03716999999999926 19.164674135742192 0.0631889999999995 Q 19.190693135742194 0.08920799999999929 19.190693135742194 0.1300949999999994 L 19.190693135742194 2.5461449999999997 Q 19.190693135742194 2.5870319999999998 19.164674135742192 2.613051 Q 19.138655135742194 2.63907 19.097768135742193 2.63907 L 18.718634135742192 2.63907 Q 18.681464135742193 2.63907 18.655445135742195 2.613051 Q 18.629426135742193 2.5870319999999998 18.629426135742193 2.5461449999999997 L 18.629426135742193 1.0444769999999994 L 18.15736713574219 1.9291229999999997 Q 18.138782135742193 1.9625759999999997 18.109046135742194 1.9885949999999997 Q 18.079310135742194 2.014614 18.030989135742193 2.014614 L 17.856290135742192 2.014614 Q 17.807969135742194 2.014614 17.778233135742195 1.9885949999999997 Q 17.748497135742195 1.9625759999999997 17.729912135742193 1.9291229999999997 L 17.25785313574219 1.0444769999999994 L 17.25785313574219 2.5461449999999997 Q 17.25785313574219 2.5870319999999998 17.231834135742194 2.613051 Q 17.205815135742192 2.63907 17.168645135742192 2.63907 L 16.789511135742192 2.63907 M 21.833398463378913 2.67624 Q 21.484000463378912 2.67624 21.24053696337891 2.5591545 Q 20.997073463378914 2.4420689999999996 20.86326146337891 2.2171904999999996 Q 20.729449463378913 1.9923119999999996 20.714581463378913 1.6689329999999996 Q 20.71086446337891 1.5165359999999997 20.71086446337891 1.3418369999999995 Q 20.71086446337891 1.1671379999999996 20.714581463378913 1.0073069999999995 Q 20.729449463378913 0.6876449999999994 20.865119963378913 0.4627664999999994 Q 21.000790463378912 0.23788799999999943 21.246112463378914 0.1189439999999995 Q 21.491434463378912 -8.881784197001252e-16 21.833398463378913 -8.881784197001252e-16 Q 22.082437463378913 -8.881784197001252e-16 22.286872463378913 0.0631889999999995 Q 22.491307463378913 0.12637799999999944 22.63998746337891 0.24532199999999937 Q 22.788667463378914 0.3642659999999993 22.870441463378913 0.5240969999999994 Q 22.952215463378913 0.6839279999999994 22.959649463378913 0.8809289999999994 Q 22.959649463378913 0.9143819999999996 22.935488963378912 0.9366839999999994 Q 22.911328463378915 0.9589859999999994 22.877875463378913 0.9589859999999994 L 22.454137463378913 0.9589859999999994 Q 22.409533463378914 0.9589859999999994 22.383514463378912 0.9366839999999994 Q 22.357495463378914 0.9143819999999996 22.342627463378914 0.8623439999999996 Q 22.286872463378913 0.6430409999999995 22.156777463378912 0.5612669999999995 Q 22.02668246337891 0.4794929999999993 21.833398463378913 0.4794929999999993 Q 21.60294446337891 0.4794929999999993 21.469132463378912 0.6058709999999996 Q 21.335320463378913 0.7322489999999995 21.32416946337891 1.0258919999999996 Q 21.313018463378913 1.3306859999999996 21.32416946337891 1.6503479999999997 Q 21.335320463378913 1.9439909999999996 21.469132463378912 2.0703689999999995 Q 21.60294446337891 2.196747 21.833398463378913 2.196747 Q 22.02668246337891 2.196747 22.158635963378913 2.1131144999999996 Q 22.290589463378915 2.029482 22.342627463378914 1.8138959999999997 Q 22.357495463378914 1.7581409999999997 22.383514463378912 1.7376974999999997 Q 22.409533463378914 1.7172539999999996 22.454137463378913 1.7172539999999996 L 22.877875463378913 1.7172539999999996 Q 22.911328463378915 1.7172539999999996 22.935488963378912 1.7395559999999997 Q 22.959649463378913 1.7618579999999997 22.959649463378913 1.7953109999999997 Q 22.952215463378913 1.9923119999999996 22.870441463378913 2.1521429999999997 Q 22.788667463378914 2.3119739999999998 22.63998746337891 2.4309179999999997 Q 22.491307463378913 2.5498619999999996 22.286872463378913 2.613051 Q 22.082437463378913 2.67624 21.833398463378913 2.67624 M 23.587797054199225 2.63907 Q 23.546910054199227 2.63907 23.520891054199225 2.613051 Q 23.494872054199227 2.5870319999999998 23.494872054199227 2.5461449999999997 L 23.494872054199227 0.1300949999999994 Q 23.494872054199227 0.08920799999999929 23.520891054199225 0.0631889999999995 Q 23.546910054199227 0.03716999999999926 23.587797054199225 0.03716999999999926 L 24.572802054199226 0.03716999999999926 Q 25.037427054199227 0.03716999999999926 25.305051054199225 0.25089749999999933 Q 25.572675054199227 0.4646249999999994 25.572675054199227 0.8660609999999995 Q 25.572675054199227 1.1374019999999996 25.442580054199226 1.3195349999999995 Q 25.312485054199225 1.5016679999999996 25.093182054199225 1.5908759999999995 L 25.617279054199226 2.520126 Q 25.628430054199228 2.5424279999999997 25.628430054199228 2.561013 Q 25.628430054199228 2.5907489999999997 25.606128054199225 2.6149095 Q 25.583826054199225 2.63907 25.550373054199227 2.63907 L 25.137786054199225 2.63907 Q 25.070880054199225 2.63907 25.037427054199227 2.6037584999999996 Q 25.003974054199226 2.568447 24.989106054199226 2.5387109999999997 L 24.535632054199226 1.6875179999999996 L 24.085875054199228 1.6875179999999996 L 24.085875054199228 2.5461449999999997 Q 24.085875054199228 2.5870319999999998 24.059856054199226 2.613051 Q 24.033837054199225 2.63907 23.992950054199227 2.63907 L 23.587797054199225 2.63907 M 24.085875054199228 1.2154589999999996 L 24.561651054199228 1.2154589999999996 Q 24.766086054199228 1.2154589999999996 24.864586554199228 1.1225339999999995 Q 24.963087054199228 1.0296089999999996 24.963087054199228 0.8623439999999996 Q 24.963087054199228 0.6950789999999993 24.866445054199225 0.5984369999999992 Q 24.769803054199226 0.5017949999999995 24.561651054199228 0.5017949999999995 L 24.085875054199228 0.5017949999999995 L 24.085875054199228 1.2154589999999996 M 27.211897463378914 2.67624 Q 26.884801463378913 2.67624 26.639479463378915 2.5665885 Q 26.394157463378914 2.456937 26.260345463378915 2.2283415 Q 26.126533463378916 1.9997459999999996 26.126533463378916 1.6466309999999997 L 26.126533463378916 0.1300949999999994 Q 26.126533463378916 0.08920799999999929 26.152552463378914 0.0631889999999995 Q 26.178571463378915 0.03716999999999926 26.219458463378913 0.03716999999999926 L 26.624611463378915 0.03716999999999926 Q 26.665498463378913 0.03716999999999926 26.691517463378915 0.0631889999999995 Q 26.717536463378913 0.08920799999999929 26.717536463378913 0.1300949999999994 L 26.717536463378913 1.6429139999999998 Q 26.717536463378913 1.9179719999999998 26.847631463378914 2.0517839999999996 Q 26.977726463378914 2.185596 27.211897463378914 2.185596 Q 27.442351463378916 2.185596 27.572446463378913 2.0517839999999996 Q 27.702541463378914 1.9179719999999998 27.702541463378914 1.6429139999999998 L 27.702541463378914 0.1300949999999994 Q 27.702541463378914 0.08920799999999929 27.730418963378916 0.0631889999999995 Q 27.758296463378915 0.03716999999999926 27.795466463378915 0.03716999999999926 L 28.204336463378915 0.03716999999999926 Q 28.241506463378915 0.03716999999999926 28.267525463378917 0.0631889999999995 Q 28.293544463378915 0.08920799999999929 28.293544463378915 0.1300949999999994 L 28.293544463378915 1.6466309999999997 Q 28.293544463378915 1.9997459999999996 28.159732463378916 2.2283415 Q 28.025920463378917 2.456937 27.784315463378913 2.5665885 Q 27.542710463378913 2.67624 27.211897463378914 2.67624 M 28.89939368408204 2.63907 Q 28.858506684082037 2.63907 28.83248768408204 2.6111924999999996 Q 28.806468684082038 2.583315 28.806468684082038 2.5461449999999997 L 28.806468684082038 2.233917 Q 28.806468684082038 2.181879 28.828770684082038 2.1484259999999997 Q 28.851072684082038 2.1149729999999995 28.86222368408204 2.1001049999999997 L 30.11113568408204 0.5315309999999993 L 28.93284668408204 0.5315309999999993 Q 28.89567668408204 0.5315309999999993 28.86965768408204 0.5055119999999995 Q 28.843638684082038 0.4794929999999993 28.843638684082038 0.4423229999999996 L 28.843638684082038 0.1300949999999994 Q 28.843638684082038 0.08920799999999929 28.86965768408204 0.0631889999999995 Q 28.89567668408204 0.03716999999999926 28.93284668408204 0.03716999999999926 L 30.75789368408204 0.03716999999999926 Q 30.79878068408204 0.03716999999999926 30.82665818408204 0.0631889999999995 Q 30.854535684082038 0.08920799999999929 30.854535684082038 0.1300949999999994 L 30.854535684082038 0.4386059999999996 Q 30.854535684082038 0.4794929999999993 30.839667684082038 0.5110874999999995 Q 30.824799684082038 0.5426819999999992 30.80621468408204 0.5649839999999995 L 29.59075568408204 2.140992 L 30.802497684082038 2.140992 Q 30.84338468408204 2.140992 30.86940368408204 2.1670109999999996 Q 30.89542268408204 2.19303 30.89542268408204 2.233917 L 30.89542268408204 2.5461449999999997 Q 30.89542268408204 2.5870319999999998 30.86940368408204 2.613051 Q 30.84338468408204 2.63907 30.802497684082038 2.63907 L 28.89939368408204 2.63907" fill="#ffffff" fill-rule="nonzero"></path></g><g><path d=" M 7.859973111328131 6.062210099999999 Q 7.65297311132813 6.062210099999999 7.51684811132813 5.985710099999999 Q 7.38072311132813 5.909210099999999 7.31097311132813 5.7719600999999985 Q 7.2412231113281305 5.634710099999999 7.23447311132813 5.452460099999999 Q 7.23222311132813 5.360210099999999 7.23222311132813 5.254460099999998 Q 7.23222311132813 5.148710099999999 7.23447311132813 5.051960099999999 Q 7.2412231113281305 4.869710099999999 7.31097311132813 4.732460099999999 Q 7.38072311132813 4.595210099999999 7.51684811132813 4.518710099999999 Q 7.65297311132813 4.442210099999999 7.859973111328131 4.442210099999999 Q 8.01522311132813 4.442210099999999 8.13222311132813 4.484960099999999 Q 8.249223111328131 4.527710099999998 8.32684811132813 4.5997100999999985 Q 8.40447311132813 4.6717100999999985 8.44497311132813 4.760585099999998 Q 8.48547311132813 4.849460099999999 8.48997311132813 4.943960099999998 Q 8.49222311132813 4.964210099999999 8.477598111328131 4.977710099999999 Q 8.46297311132813 4.991210099999998 8.44272311132813 4.991210099999998 L 8.31897311132813 4.991210099999998 Q 8.29872311132813 4.991210099999998 8.284098111328131 4.979960099999999 Q 8.26947311132813 4.968710099999999 8.26272311132813 4.939460099999999 Q 8.22447311132813 4.7639600999999985 8.11984811132813 4.698710099999999 Q 8.01522311132813 4.633460099999999 7.859973111328131 4.633460099999999 Q 7.67772311132813 4.633460099999999 7.571973111328131 4.735835099999999 Q 7.46622311132813 4.838210099999999 7.459473111328131 5.063210099999999 Q 7.4527231113281305 5.247710099999999 7.459473111328131 5.441210099999999 Q 7.46622311132813 5.666210099999999 7.571973111328131 5.768585099999999 Q 7.67772311132813 5.870960099999999 7.859973111328131 5.870960099999999 Q 8.01522311132813 5.870960099999999 8.11984811132813 5.805710099999999 Q 8.22447311132813 5.740460099999999 8.26272311132813 5.564960099999999 Q 8.26947311132813 5.535710099999999 8.284098111328131 5.524460099999999 Q 8.29872311132813 5.5132100999999984 8.31897311132813 5.5132100999999984 L 8.44272311132813 5.5132100999999984 Q 8.46297311132813 5.5132100999999984 8.477598111328131 5.525585099999999 Q 8.49222311132813 5.5379600999999985 8.48997311132813 5.558210099999998 Q 8.48547311132813 5.652710099999998 8.44497311132813 5.742710099999999 Q 8.40447311132813 5.832710099999999 8.32684811132813 5.904710099999999 Q 8.249223111328131 5.976710099999999 8.13222311132813 6.019460099999999 Q 8.01522311132813 6.062210099999999 7.859973111328131 6.062210099999999 M 9.39450826757813 6.062210099999999 Q 9.20100826757813 6.062210099999999 9.06375826757813 5.995835099999999 Q 8.92650826757813 5.929460099999999 8.85225826757813 5.791085099999999 Q 8.77800826757813 5.652710099999998 8.76900826757813 5.4434600999999985 Q 8.76675826757813 5.344460099999999 8.76675826757813 5.253335099999999 Q 8.76675826757813 5.1622100999999985 8.76900826757813 5.063210099999999 Q 8.77800826757813 4.856210099999998 8.85563326757813 4.7178350999999985 Q 8.93325826757813 4.579460099999999 9.07163326757813 4.510835099999999 Q 9.21000826757813 4.442210099999999 9.39450826757813 4.442210099999999 Q 9.57675826757813 4.442210099999999 9.71513326757813 4.510835099999999 Q 9.85350826757813 4.579460099999999 9.93225826757813 4.7178350999999985 Q 10.01100826757813 4.856210099999998 10.017758267578131 5.063210099999999 Q 10.02225826757813 5.1622100999999985 10.02225826757813 5.253335099999999 Q 10.02225826757813 5.344460099999999 10.017758267578131 5.4434600999999985 Q 10.01100826757813 5.652710099999998 9.93563326757813 5.791085099999999 Q 9.86025826757813 5.929460099999999 9.72300826757813 5.995835099999999 Q 9.58575826757813 6.062210099999999 9.39450826757813 6.062210099999999 M 9.39450826757813 5.870960099999999 Q 9.56550826757813 5.870960099999999 9.67463326757813 5.767460099999999 Q 9.78375826757813 5.663960099999999 9.79275826757813 5.432210099999999 Q 9.79725826757813 5.330960099999999 9.79725826757813 5.251085099999999 Q 9.79725826757813 5.171210099999999 9.79275826757813 5.072210099999999 Q 9.78825826757813 4.916960099999999 9.735383267578129 4.820210099999999 Q 9.68250826757813 4.723460099999999 9.594758267578129 4.678460099999999 Q 9.50700826757813 4.633460099999999 9.39450826757813 4.633460099999999 Q 9.28200826757813 4.633460099999999 9.19425826757813 4.678460099999999 Q 9.10650826757813 4.723460099999999 9.05363326757813 4.820210099999999 Q 9.00075826757813 4.916960099999999 8.99400826757813 5.072210099999999 Q 8.99175826757813 5.171210099999999 8.99175826757813 5.251085099999999 Q 8.99175826757813 5.330960099999999 8.99400826757813 5.432210099999999 Q 9.00300826757813 5.663960099999999 9.11325826757813 5.767460099999999 Q 9.22350826757813 5.870960099999999 9.39450826757813 5.870960099999999 M 10.43851266210938 6.039710099999999 Q 10.41601266210938 6.039710099999999 10.40138766210938 6.025085099999999 Q 10.38676266210938 6.010460099999999 10.38676266210938 5.987960099999999 L 10.38676266210938 4.518710099999999 Q 10.38676266210938 4.493960099999999 10.40138766210938 4.479335099999998 Q 10.41601266210938 4.464710099999999 10.43851266210938 4.464710099999999 L 10.551012662109379 4.464710099999999 Q 10.57801266210938 4.464710099999999 10.591512662109379 4.478210099999998 Q 10.60501266210938 4.491710099999999 10.60951266210938 4.500710099999999 L 11.08426266210938 5.409710099999999 L 11.56351266210938 4.500710099999999 Q 11.56801266210938 4.491710099999999 11.58038766210938 4.478210099999998 Q 11.59276266210938 4.464710099999999 11.61976266210938 4.464710099999999 L 11.73001266210938 4.464710099999999 Q 11.75476266210938 4.464710099999999 11.769387662109379 4.479335099999998 Q 11.78401266210938 4.493960099999999 11.78401266210938 4.518710099999999 L 11.78401266210938 5.987960099999999 Q 11.78401266210938 6.010460099999999 11.769387662109379 6.025085099999999 Q 11.75476266210938 6.039710099999999 11.73001266210938 6.039710099999999 L 11.61976266210938 6.039710099999999 Q 11.59726266210938 6.039710099999999 11.582637662109379 6.025085099999999 Q 11.56801266210938 6.010460099999999 11.56801266210938 5.987960099999999 L 11.56801266210938 4.8809600999999985 L 11.19226266210938 5.614460099999999 Q 11.18326266210938 5.636960099999999 11.16526266210938 5.649335099999999 Q 11.14726266210938 5.661710099999999 11.12026266210938 5.661710099999999 L 11.05051266210938 5.661710099999999 Q 11.021262662109379 5.661710099999999 11.00551266210938 5.649335099999999 Q 10.98976266210938 5.636960099999999 10.97851266210938 5.614460099999999 L 10.600512662109379 4.8809600999999985 L 10.600512662109379 5.987960099999999 Q 10.600512662109379 6.010460099999999 10.58588766210938 6.025085099999999 Q 10.57126266210938 6.039710099999999 10.548762662109379 6.039710099999999 L 10.43851266210938 6.039710099999999 M 12.261026944335942 6.039710099999999 Q 12.236276944335941 6.039710099999999 12.222776944335942 6.025085099999999 Q 12.209276944335942 6.010460099999999 12.209276944335942 5.987960099999999 L 12.209276944335942 4.518710099999999 Q 12.209276944335942 4.493960099999999 12.222776944335942 4.479335099999998 Q 12.236276944335941 4.464710099999999 12.261026944335942 4.464710099999999 L 12.832526944335942 4.464710099999999 Q 12.999026944335942 4.464710099999999 13.121651944335941 4.518710099999999 Q 13.244276944335942 4.572710099999998 13.311776944335941 4.679585099999999 Q 13.379276944335942 4.786460099999998 13.379276944335942 4.946210099999998 Q 13.379276944335942 5.105960099999999 13.311776944335941 5.211710099999999 Q 13.244276944335942 5.317460099999999 13.121651944335941 5.371460099999998 Q 12.999026944335942 5.425460099999999 12.832526944335942 5.425460099999999 L 12.434276944335942 5.425460099999999 L 12.434276944335942 5.987960099999999 Q 12.434276944335942 6.010460099999999 12.419651944335941 6.025085099999999 Q 12.405026944335942 6.039710099999999 12.380276944335941 6.039710099999999 L 12.261026944335942 6.039710099999999 M 12.432026944335941 5.236460099999999 L 12.821276944335942 5.236460099999999 Q 12.987776944335941 5.236460099999999 13.07102694433594 5.1622100999999985 Q 13.154276944335942 5.087960099999998 13.154276944335942 4.946210099999998 Q 13.154276944335942 4.806710099999998 13.073276944335941 4.730210099999999 Q 12.992276944335941 4.653710099999999 12.821276944335942 4.653710099999999 L 12.432026944335941 4.653710099999999 L 12.432026944335941 5.236460099999999 M 14.283841763671878 6.062210099999999 Q 14.094841763671878 6.062210099999999 13.958716763671879 5.994710099999999 Q 13.822591763671879 5.927210099999999 13.74946676367188 5.788835099999999 Q 13.676341763671878 5.650460099999999 13.676341763671878 5.432210099999999 L 13.676341763671878 4.518710099999999 Q 13.676341763671878 4.493960099999999 13.689841763671879 4.479335099999998 Q 13.70334176367188 4.464710099999999 13.728091763671879 4.464710099999999 L 13.84284176367188 4.464710099999999 Q 13.867591763671879 4.464710099999999 13.88221676367188 4.479335099999998 Q 13.896841763671878 4.493960099999999 13.896841763671878 4.518710099999999 L 13.896841763671878 5.436710099999999 Q 13.896841763671878 5.657210099999999 14.000341763671878 5.762960099999999 Q 14.103841763671879 5.868710099999999 14.283841763671878 5.868710099999999 Q 14.461591763671878 5.868710099999999 14.566216763671878 5.762960099999999 Q 14.670841763671879 5.657210099999999 14.670841763671879 5.436710099999999 L 14.670841763671879 4.518710099999999 Q 14.670841763671879 4.493960099999999 14.68546676367188 4.479335099999998 Q 14.700091763671878 4.464710099999999 14.722591763671879 4.464710099999999 L 14.839591763671878 4.464710099999999 Q 14.862091763671879 4.464710099999999 14.87671676367188 4.479335099999998 Q 14.891341763671878 4.493960099999999 14.891341763671878 4.518710099999999 L 14.891341763671878 5.432210099999999 Q 14.891341763671878 5.650460099999999 14.81821676367188 5.788835099999999 Q 14.745091763671878 5.927210099999999 14.610091763671878 5.994710099999999 Q 14.475091763671879 6.062210099999999 14.283841763671878 6.062210099999999 M 15.69906649511719 6.039710099999999 Q 15.676566495117191 6.039710099999999 15.66194149511719 6.025085099999999 Q 15.647316495117192 6.010460099999999 15.647316495117192 5.987960099999999 L 15.647316495117192 4.664960099999998 L 15.215316495117191 4.664960099999998 Q 15.19281649511719 4.664960099999998 15.17819149511719 4.650335099999999 Q 15.163566495117191 4.635710099999999 15.163566495117191 4.613210099999999 L 15.163566495117191 4.518710099999999 Q 15.163566495117191 4.493960099999999 15.17819149511719 4.479335099999998 Q 15.19281649511719 4.464710099999999 15.215316495117191 4.464710099999999 L 16.29981649511719 4.464710099999999 Q 16.324566495117192 4.464710099999999 16.33919149511719 4.479335099999998 Q 16.35381649511719 4.493960099999999 16.35381649511719 4.518710099999999 L 16.35381649511719 4.613210099999999 Q 16.35381649511719 4.635710099999999 16.33919149511719 4.650335099999999 Q 16.324566495117192 4.664960099999998 16.29981649511719 4.664960099999998 L 15.870066495117191 4.664960099999998 L 15.870066495117191 5.987960099999999 Q 15.870066495117191 6.010460099999999 15.85544149511719 6.025085099999999 Q 15.84081649511719 6.039710099999999 15.816066495117191 6.039710099999999 L 15.69906649511719 6.039710099999999 M 16.693520352539064 6.039710099999999 Q 16.668770352539067 6.039710099999999 16.655270352539066 6.025085099999999 Q 16.641770352539066 6.010460099999999 16.641770352539066 5.987960099999999 L 16.641770352539066 4.518710099999999 Q 16.641770352539066 4.493960099999999 16.655270352539066 4.479335099999998 Q 16.668770352539067 4.464710099999999 16.693520352539064 4.464710099999999 L 17.622770352539064 4.464710099999999 Q 17.647520352539065 4.464710099999999 17.661020352539065 4.479335099999998 Q 17.674520352539066 4.493960099999999 17.674520352539066 4.518710099999999 L 17.674520352539066 4.604210099999999 Q 17.674520352539066 4.628960099999999 17.661020352539065 4.642460099999999 Q 17.647520352539065 4.655960099999999 17.622770352539064 4.655960099999999 L 16.857770352539067 4.655960099999999 L 16.857770352539067 5.148710099999999 L 17.573270352539065 5.148710099999999 Q 17.598020352539066 5.148710099999999 17.611520352539067 5.1633350999999985 Q 17.625020352539064 5.177960099999999 17.625020352539064 5.202710099999999 L 17.625020352539064 5.285960099999999 Q 17.625020352539064 5.308460099999999 17.611520352539067 5.323085099999998 Q 17.598020352539066 5.337710099999999 17.573270352539065 5.337710099999999 L 16.857770352539067 5.337710099999999 L 16.857770352539067 5.848460099999999 L 17.640770352539064 5.848460099999999 Q 17.665520352539065 5.848460099999999 17.679020352539066 5.861960099999999 Q 17.692520352539066 5.875460099999999 17.692520352539066 5.900210099999999 L 17.692520352539066 5.987960099999999 Q 17.692520352539066 6.010460099999999 17.679020352539066 6.025085099999999 Q 17.665520352539065 6.039710099999999 17.640770352539064 6.039710099999999 L 16.693520352539064 6.039710099999999 M 18.093061001953128 6.039710099999999 Q 18.06831100195313 6.039710099999999 18.05481100195313 6.025085099999999 Q 18.04131100195313 6.010460099999999 18.04131100195313 5.987960099999999 L 18.04131100195313 4.518710099999999 Q 18.04131100195313 4.493960099999999 18.05481100195313 4.479335099999998 Q 18.06831100195313 4.464710099999999 18.093061001953128 4.464710099999999 L 18.64206100195313 4.464710099999999 Q 18.89631100195313 4.464710099999999 19.04481100195313 4.583960099999999 Q 19.19331100195313 4.703210099999999 19.19331100195313 4.937210099999999 Q 19.19331100195313 5.110460099999999 19.10668600195313 5.219585099999999 Q 19.02006100195313 5.328710099999999 18.87156100195313 5.371460099999998 L 19.218061001953128 5.969960099999999 Q 19.224811001953128 5.9834600999999985 19.224811001953128 5.994710099999999 Q 19.224811001953128 6.012710099999999 19.21018600195313 6.026210099999999 Q 19.19556100195313 6.039710099999999 19.17756100195313 6.039710099999999 L 19.06956100195313 6.039710099999999 Q 19.031311001953128 6.039710099999999 19.01331100195313 6.019460099999999 Q 18.99531100195313 5.999210099999999 18.98181100195313 5.978960099999999 L 18.655561001953128 5.407460099999999 L 18.26181100195313 5.407460099999999 L 18.26181100195313 5.987960099999999 Q 18.26181100195313 6.010460099999999 18.24718600195313 6.025085099999999 Q 18.23256100195313 6.039710099999999 18.20781100195313 6.039710099999999 L 18.093061001953128 6.039710099999999 M 18.26181100195313 5.216210099999999 L 18.63306100195313 5.216210099999999 Q 18.80181100195313 5.216210099999999 18.88506100195313 5.145335099999999 Q 18.96831100195313 5.074460099999999 18.96831100195313 4.934960099999999 Q 18.96831100195313 4.797710099999999 18.886186001953128 4.725710099999999 Q 18.80406100195313 4.653710099999999 18.63306100195313 4.653710099999999 L 18.26181100195313 4.653710099999999 L 18.26181100195313 5.216210099999999 M 20.190115933593756 6.039710099999999 Q 20.16536593359376 6.039710099999999 20.151865933593758 6.025085099999999 Q 20.138365933593757 6.010460099999999 20.138365933593757 5.987960099999999 L 20.138365933593757 4.518710099999999 Q 20.138365933593757 4.493960099999999 20.151865933593758 4.479335099999998 Q 20.16536593359376 4.464710099999999 20.190115933593756 4.464710099999999 L 21.119365933593755 4.464710099999999 Q 21.144115933593756 4.464710099999999 21.157615933593757 4.479335099999998 Q 21.171115933593757 4.493960099999999 21.171115933593757 4.518710099999999 L 21.171115933593757 4.604210099999999 Q 21.171115933593757 4.628960099999999 21.157615933593757 4.642460099999999 Q 21.144115933593756 4.655960099999999 21.119365933593755 4.655960099999999 L 20.35436593359376 4.655960099999999 L 20.35436593359376 5.148710099999999 L 21.069865933593757 5.148710099999999 Q 21.094615933593758 5.148710099999999 21.10811593359376 5.1633350999999985 Q 21.121615933593755 5.177960099999999 21.121615933593755 5.202710099999999 L 21.121615933593755 5.285960099999999 Q 21.121615933593755 5.308460099999999 21.10811593359376 5.323085099999998 Q 21.094615933593758 5.337710099999999 21.069865933593757 5.337710099999999 L 20.35436593359376 5.337710099999999 L 20.35436593359376 5.848460099999999 L 21.137365933593756 5.848460099999999 Q 21.162115933593757 5.848460099999999 21.175615933593757 5.861960099999999 Q 21.189115933593758 5.875460099999999 21.189115933593758 5.900210099999999 L 21.189115933593758 5.987960099999999 Q 21.189115933593758 6.010460099999999 21.175615933593757 6.025085099999999 Q 21.162115933593757 6.039710099999999 21.137365933593756 6.039710099999999 L 20.190115933593756 6.039710099999999 M 21.58965658300782 6.039710099999999 Q 21.564906583007822 6.039710099999999 21.55140658300782 6.025085099999999 Q 21.53790658300782 6.010460099999999 21.53790658300782 5.987960099999999 L 21.53790658300782 4.518710099999999 Q 21.53790658300782 4.493960099999999 21.55140658300782 4.479335099999998 Q 21.564906583007822 4.464710099999999 21.58965658300782 4.464710099999999 L 21.69315658300782 4.464710099999999 Q 21.72015658300782 4.464710099999999 21.73365658300782 4.477085099999998 Q 21.747156583007822 4.489460099999999 21.749406583007822 4.496210099999999 L 22.496406583007822 5.643710099999999 L 22.496406583007822 4.518710099999999 Q 22.496406583007822 4.493960099999999 22.509906583007822 4.479335099999998 Q 22.52340658300782 4.464710099999999 22.54815658300782 4.464710099999999 L 22.65615658300782 4.464710099999999 Q 22.680906583007822 4.464710099999999 22.69553158300782 4.479335099999998 Q 22.71015658300782 4.493960099999999 22.71015658300782 4.518710099999999 L 22.71015658300782 5.985710099999999 Q 22.71015658300782 6.0082100999999986 22.69553158300782 6.023960099999999 Q 22.680906583007822 6.039710099999999 22.65840658300782 6.039710099999999 L 22.55040658300782 6.039710099999999 Q 22.52565658300782 6.039710099999999 22.51328158300782 6.026210099999999 Q 22.500906583007822 6.012710099999999 22.496406583007822 6.0082100999999986 L 21.751656583007822 4.871960099999999 L 21.751656583007822 5.987960099999999 Q 21.751656583007822 6.010460099999999 21.73703158300782 6.025085099999999 Q 21.72240658300782 6.039710099999999 21.69765658300782 6.039710099999999 L 21.58965658300782 6.039710099999999 M 23.71142306250001 6.062210099999999 Q 23.51117306250001 6.062210099999999 23.37279806250001 5.987960099999999 Q 23.23442306250001 5.9137100999999985 23.16129806250001 5.778710099999999 Q 23.088173062500008 5.643710099999999 23.07917306250001 5.461460099999999 Q 23.07692306250001 5.362460099999999 23.07692306250001 5.251085099999999 Q 23.07692306250001 5.1397100999999985 23.07917306250001 5.038460099999998 Q 23.088173062500008 4.856210099999998 23.16129806250001 4.722335099999999 Q 23.23442306250001 4.588460099999999 23.37392306250001 4.515335099999999 Q 23.51342306250001 4.442210099999999 23.71142306250001 4.442210099999999 Q 23.86892306250001 4.442210099999999 23.98592306250001 4.487210099999999 Q 24.10292306250001 4.532210099999999 24.17829806250001 4.6008350999999985 Q 24.25367306250001 4.6694600999999984 24.29079806250001 4.743710099999999 Q 24.32792306250001 4.817960099999999 24.33017306250001 4.874210099999999 Q 24.33242306250001 4.894460099999999 24.31892306250001 4.906835099999999 Q 24.30542306250001 4.919210099999999 24.28292306250001 4.919210099999999 L 24.15017306250001 4.919210099999999 Q 24.12767306250001 4.919210099999999 24.11754806250001 4.910210099999999 Q 24.10742306250001 4.901210099999998 24.09842306250001 4.878710099999999 Q 24.07817306250001 4.820210099999999 24.03204806250001 4.7639600999999985 Q 23.98592306250001 4.707710099999999 23.90829806250001 4.6705850999999985 Q 23.83067306250001 4.633460099999999 23.71142306250001 4.633460099999999 Q 23.53142306250001 4.633460099999999 23.42229806250001 4.730210099999999 Q 23.31317306250001 4.826960099999999 23.30417306250001 5.049710099999999 Q 23.29742306250001 5.249960099999999 23.30417306250001 5.450210099999999 Q 23.31317306250001 5.675210099999999 23.42342306250001 5.7730850999999985 Q 23.53367306250001 5.870960099999999 23.71142306250001 5.870960099999999 Q 23.83067306250001 5.870960099999999 23.92404806250001 5.825960099999999 Q 24.01742306250001 5.780960099999999 24.07142306250001 5.689835099999999 Q 24.12542306250001 5.598710099999999 24.12542306250001 5.456960099999999 L 24.12542306250001 5.362460099999999 L 23.78792306250001 5.362460099999999 Q 23.76542306250001 5.362460099999999 23.75079806250001 5.347835099999998 Q 23.73617306250001 5.333210099999999 23.73617306250001 5.308460099999999 L 23.73617306250001 5.236460099999999 Q 23.73617306250001 5.211710099999999 23.75079806250001 5.197085099999999 Q 23.76542306250001 5.182460099999998 23.78792306250001 5.182460099999998 L 24.29642306250001 5.182460099999998 Q 24.32117306250001 5.182460099999998 24.33467306250001 5.197085099999999 Q 24.34817306250001 5.211710099999999 24.34817306250001 5.236460099999999 L 24.34817306250001 5.452460099999999 Q 24.34817306250001 5.636960099999999 24.27279806250001 5.774210099999999 Q 24.19742306250001 5.911460099999998 24.05342306250001 5.986835099999999 Q 23.90942306250001 6.062210099999999 23.71142306250001 6.062210099999999 M 24.757603848632822 6.039710099999999 Q 24.732853848632825 6.039710099999999 24.719353848632824 6.025085099999999 Q 24.705853848632824 6.010460099999999 24.705853848632824 5.987960099999999 L 24.705853848632824 4.516460099999999 Q 24.705853848632824 4.493960099999999 24.719353848632824 4.479335099999998 Q 24.732853848632825 4.464710099999999 24.757603848632822 4.464710099999999 L 24.876853848632823 4.464710099999999 Q 24.901603848632824 4.464710099999999 24.915103848632825 4.479335099999998 Q 24.928603848632825 4.493960099999999 24.928603848632825 4.516460099999999 L 24.928603848632825 5.987960099999999 Q 24.928603848632825 6.010460099999999 24.915103848632825 6.025085099999999 Q 24.901603848632824 6.039710099999999 24.876853848632823 6.039710099999999 L 24.757603848632822 6.039710099999999 M 25.407876919921886 6.039710099999999 Q 25.38312691992189 6.039710099999999 25.36962691992189 6.025085099999999 Q 25.356126919921888 6.010460099999999 25.356126919921888 5.987960099999999 L 25.356126919921888 4.518710099999999 Q 25.356126919921888 4.493960099999999 25.36962691992189 4.479335099999998 Q 25.38312691992189 4.464710099999999 25.407876919921886 4.464710099999999 L 25.511376919921886 4.464710099999999 Q 25.538376919921888 4.464710099999999 25.551876919921888 4.477085099999998 Q 25.56537691992189 4.489460099999999 25.56762691992189 4.496210099999999 L 26.31462691992189 5.643710099999999 L 26.31462691992189 4.518710099999999 Q 26.31462691992189 4.493960099999999 26.32812691992189 4.479335099999998 Q 26.341626919921886 4.464710099999999 26.366376919921887 4.464710099999999 L 26.474376919921887 4.464710099999999 Q 26.49912691992189 4.464710099999999 26.513751919921887 4.479335099999998 Q 26.528376919921886 4.493960099999999 26.528376919921886 4.518710099999999 L 26.528376919921886 5.985710099999999 Q 26.528376919921886 6.0082100999999986 26.513751919921887 6.023960099999999 Q 26.49912691992189 6.039710099999999 26.476626919921888 6.039710099999999 L 26.368626919921887 6.039710099999999 Q 26.343876919921886 6.039710099999999 26.331501919921887 6.026210099999999 Q 26.31912691992189 6.012710099999999 26.31462691992189 6.0082100999999986 L 25.56987691992189 4.871960099999999 L 25.56987691992189 5.987960099999999 Q 25.56987691992189 6.010460099999999 25.555251919921886 6.025085099999999 Q 25.540626919921888 6.039710099999999 25.515876919921887 6.039710099999999 L 25.407876919921886 6.039710099999999 M 27.007643399414075 6.039710099999999 Q 26.982893399414078 6.039710099999999 26.969393399414077 6.025085099999999 Q 26.955893399414077 6.010460099999999 26.955893399414077 5.987960099999999 L 26.955893399414077 4.518710099999999 Q 26.955893399414077 4.493960099999999 26.969393399414077 4.479335099999998 Q 26.982893399414078 4.464710099999999 27.007643399414075 4.464710099999999 L 27.936893399414075 4.464710099999999 Q 27.961643399414076 4.464710099999999 27.975143399414076 4.479335099999998 Q 27.988643399414077 4.493960099999999 27.988643399414077 4.518710099999999 L 27.988643399414077 4.604210099999999 Q 27.988643399414077 4.628960099999999 27.975143399414076 4.642460099999999 Q 27.961643399414076 4.655960099999999 27.936893399414075 4.655960099999999 L 27.171893399414078 4.655960099999999 L 27.171893399414078 5.148710099999999 L 27.887393399414076 5.148710099999999 Q 27.912143399414077 5.148710099999999 27.925643399414078 5.1633350999999985 Q 27.939143399414075 5.177960099999999 27.939143399414075 5.202710099999999 L 27.939143399414075 5.285960099999999 Q 27.939143399414075 5.308460099999999 27.925643399414078 5.323085099999998 Q 27.912143399414077 5.337710099999999 27.887393399414076 5.337710099999999 L 27.171893399414078 5.337710099999999 L 27.171893399414078 5.848460099999999 L 27.954893399414075 5.848460099999999 Q 27.979643399414076 5.848460099999999 27.993143399414077 5.861960099999999 Q 28.006643399414077 5.875460099999999 28.006643399414077 5.900210099999999 L 28.006643399414077 5.987960099999999 Q 28.006643399414077 6.010460099999999 27.993143399414077 6.025085099999999 Q 27.979643399414076 6.039710099999999 27.954893399414075 6.039710099999999 L 27.007643399414075 6.039710099999999 M 28.40718404882814 6.039710099999999 Q 28.38243404882814 6.039710099999999 28.36893404882814 6.025085099999999 Q 28.35543404882814 6.010460099999999 28.35543404882814 5.987960099999999 L 28.35543404882814 4.518710099999999 Q 28.35543404882814 4.493960099999999 28.36893404882814 4.479335099999998 Q 28.38243404882814 4.464710099999999 28.40718404882814 4.464710099999999 L 29.33643404882814 4.464710099999999 Q 29.36118404882814 4.464710099999999 29.37468404882814 4.479335099999998 Q 29.38818404882814 4.493960099999999 29.38818404882814 4.518710099999999 L 29.38818404882814 4.604210099999999 Q 29.38818404882814 4.628960099999999 29.37468404882814 4.642460099999999 Q 29.36118404882814 4.655960099999999 29.33643404882814 4.655960099999999 L 28.57143404882814 4.655960099999999 L 28.57143404882814 5.148710099999999 L 29.28693404882814 5.148710099999999 Q 29.31168404882814 5.148710099999999 29.32518404882814 5.1633350999999985 Q 29.33868404882814 5.177960099999999 29.33868404882814 5.202710099999999 L 29.33868404882814 5.285960099999999 Q 29.33868404882814 5.308460099999999 29.32518404882814 5.323085099999998 Q 29.31168404882814 5.337710099999999 29.28693404882814 5.337710099999999 L 28.57143404882814 5.337710099999999 L 28.57143404882814 5.848460099999999 L 29.35443404882814 5.848460099999999 Q 29.37918404882814 5.848460099999999 29.39268404882814 5.861960099999999 Q 29.40618404882814 5.875460099999999 29.40618404882814 5.900210099999999 L 29.40618404882814 5.987960099999999 Q 29.40618404882814 6.010460099999999 29.39268404882814 6.025085099999999 Q 29.37918404882814 6.039710099999999 29.35443404882814 6.039710099999999 L 28.40718404882814 6.039710099999999 M 29.806724698242203 6.039710099999999 Q 29.781974698242205 6.039710099999999 29.768474698242205 6.025085099999999 Q 29.754974698242204 6.010460099999999 29.754974698242204 5.987960099999999 L 29.754974698242204 4.518710099999999 Q 29.754974698242204 4.493960099999999 29.768474698242205 4.479335099999998 Q 29.781974698242205 4.464710099999999 29.806724698242203 4.464710099999999 L 30.355724698242206 4.464710099999999 Q 30.609974698242205 4.464710099999999 30.758474698242203 4.583960099999999 Q 30.906974698242205 4.703210099999999 30.906974698242205 4.937210099999999 Q 30.906974698242205 5.110460099999999 30.820349698242204 5.219585099999999 Q 30.733724698242206 5.328710099999999 30.585224698242204 5.371460099999998 L 30.931724698242203 5.969960099999999 Q 30.938474698242203 5.9834600999999985 30.938474698242203 5.994710099999999 Q 30.938474698242203 6.012710099999999 30.923849698242204 6.026210099999999 Q 30.909224698242205 6.039710099999999 30.891224698242205 6.039710099999999 L 30.783224698242204 6.039710099999999 Q 30.744974698242203 6.039710099999999 30.726974698242206 6.019460099999999 Q 30.708974698242205 5.999210099999999 30.695474698242204 5.978960099999999 L 30.369224698242203 5.407460099999999 L 29.975474698242206 5.407460099999999 L 29.975474698242206 5.987960099999999 Q 29.975474698242206 6.010460099999999 29.960849698242203 6.025085099999999 Q 29.946224698242204 6.039710099999999 29.921474698242204 6.039710099999999 L 29.806724698242203 6.039710099999999 M 29.975474698242206 5.216210099999999 L 30.346724698242205 5.216210099999999 Q 30.515474698242205 5.216210099999999 30.598724698242204 5.145335099999999 Q 30.681974698242204 5.074460099999999 30.681974698242204 4.934960099999999 Q 30.681974698242204 4.797710099999999 30.599849698242203 4.725710099999999 Q 30.517724698242205 4.653710099999999 30.346724698242205 4.653710099999999 L 29.975474698242206 4.653710099999999 L 29.975474698242206 5.216210099999999" fill="#05bfce" fill-rule="nonzero"></path></g></g><defs><clipPath id="SvgjsClipPath86290"><path d=" M 31.433040616210942 -2.3869239057199048 h 18.542631064519533 v 10.813557911439808 h -18.542631064519533 Z"></path></clipPath><clipPath id="SvgjsClipPath8628528bbb216-5913-438b-a4e2-76dd5b6b331c"><path d=" M 31.433040616210942 -2.3869239057199048 L 49.97567168073047 -2.3869239057199048 L 49.97567168073047 8.426634005719905 L 31.433040616210942 8.426634005719905 Z"></path></clipPath></defs></svg>