<svg xmlns="http://www.w3.org/2000/svg" version="1.1" xmlns:xlink="http://www.w3.org/1999/xlink" viewBox="0 0 57.063230089999394 17.62215632586097"><g transform="matrix(0.7390003251821257,0,0,0.7390003251821257,9.746430784093423,6.443582372441912)"><g transform="matrix(1,0,0,1,0,0)" clip-path="url(#SvgjsClipPath58686)"><g clip-path="url(#SvgjsClipPath5868488f22ffe-c174-4266-aead-cc28abd37c34)"><path d=" M 34.1173852519655 7.805740904413538 L 48.016991129888154 7.805740904413538 C 48.201311990443216 7.805740904413538 48.35053518398212 7.594922467435685 48.35053518398212 7.334595400825757 L 48.35053518398212 -2.0243950786818554 C 48.35053518398212 -2.2844897104108823 48.201311990443216 -2.4955405822696233 48.016991129888154 -2.4955405822696233 L 34.1173852519655 -2.4955405822696233 C 33.93306439141043 -2.4955405822696233 33.78314389322883 -2.2844897104108686 33.78314389322883 -2.0243950786818554 L 33.78314389322883 7.334595400825757 C 33.78314389322883 7.594922467435685 33.93306439141043 7.805740904413538 34.1173852519655 7.805740904413538 Z M 34.36376622572132 -1.9300265170357696 L 47.809194346362005 -1.9300265170357696 L 47.809194346362005 7.238367360132434 L 34.36376622572132 7.238367360132434 Z" fill="#fbe5c1" transform="matrix(1,0,0,1,0,0)" fill-rule="nonzero"></path></g><g clip-path="url(#SvgjsClipPath5868488f22ffe-c174-4266-aead-cc28abd37c34)"><path d=" M 50.83898301891589 8.527451209613377 C 50.83953812372559 8.524220794681565 50.83953812372559 8.52091935954729 50.83898301891589 8.517688944615491 L 50.83898301891589 8.51164563771205 L 50.83898301891589 7.990061764968605 L 31.306782672101953 7.990061764968605 L 31.293998753652353 8.499094154143354 C 31.29493915442449 8.504352135326236 31.296180852908513 8.50955174772806 31.297717711746785 8.514667291163779 C 31.308642151149176 8.593462715789453 31.413935152197652 8.758491481229663 32.04150933063227 8.902833542269638 L 50.0684613887267 8.902833542269638 C 50.0684613887267 8.902833542269638 50.680694865021806 8.831243598951911 50.840377628201296 8.53372695139772 Z M 42.363245086834795 8.30872998668486 C 42.32348909952653 8.365323783279493 42.25602118226044 8.39571553993437 42.187291881992195 8.38799028107235 L 39.92151666296227 8.38799028107235 C 39.86009320506703 8.38646537017223 39.80301960229627 8.355945649053142 39.76764477180532 8.305708333233147 C 39.72502793254404 8.243880686913165 39.71312015610089 8.16592330156592 39.735336323359995 8.09419259161259 L 42.41066180253875 8.09419259161259 C 42.4233464327221 8.169149951578271 42.40633890212455 8.246100690507392 42.36324508683478 8.30872998668486 Z" fill="#fbe5c1" transform="matrix(1,0,0,1,0,0)" fill-rule="nonzero"></path></g></g><g><path d=" M 1.2005910000000002 0.2601899999999997 L 2.1075390000000005 2.598183 Q 2.1632940000000005 2.7394290000000003 2.2339170000000004 2.7858915000000004 Q 2.3045400000000003 2.8323540000000005 2.3640120000000002 2.8360710000000005 L 2.3640120000000002 2.9104110000000003 Q 2.2896720000000004 2.9029770000000004 2.1818790000000003 2.9011185000000004 Q 2.0740860000000003 2.8992600000000004 1.9662930000000003 2.8992600000000004 Q 1.8213300000000003 2.8992600000000004 1.6949520000000002 2.9011185000000004 Q 1.5685740000000004 2.9029770000000004 1.4905170000000003 2.9104110000000003 L 1.4905170000000003 2.8360710000000005 Q 1.6800840000000004 2.8286370000000005 1.7321220000000004 2.7710235 Q 1.7841600000000004 2.71341 1.7098200000000003 2.5238430000000003 L 1.018458 0.6764939999999999 L 1.0779300000000003 0.6281729999999999 L 0.43117200000000006 2.3082570000000002 Q 0.3717000000000001 2.4569370000000004 0.36054900000000006 2.5591545 Q 0.34939800000000004 2.661372 0.38099250000000007 2.7208440000000005 Q 0.4125870000000001 2.7803160000000005 0.4887855000000001 2.8063350000000002 Q 0.5649840000000002 2.8323540000000005 0.6802110000000001 2.8360710000000005 L 0.6802110000000001 2.9104110000000003 Q 0.5761350000000001 2.9029770000000004 0.4627665000000001 2.9011185000000004 Q 0.34939800000000004 2.8992600000000004 0.25275600000000004 2.8992600000000004 Q 0.15983100000000003 2.8992600000000004 0.09478350000000002 2.9011185000000004 Q 0.029736000000000005 2.9029770000000004 -0.026019000000000004 2.9104110000000003 L -0.026019000000000004 2.8360710000000005 Q 0.04832100000000001 2.817486 0.12637800000000002 2.7487215000000003 Q 0.20443500000000003 2.6799570000000004 0.26762400000000003 2.5126920000000004 L 1.1411190000000002 0.2601899999999997 Q 1.1559870000000003 0.2601899999999997 1.1708550000000002 0.2601899999999997 Q 1.1857230000000003 0.2601899999999997 1.2005910000000002 0.2601899999999997 M 1.6540650000000003 1.8399150000000002 L 1.6540650000000003 1.9142550000000003 L 0.5463990000000001 1.9142550000000003 L 0.5835690000000001 1.8399150000000002 L 1.6540650000000003 1.8399150000000002 M 4.149045059414063 0.944118 Q 4.453839059414063 0.944118 4.6545570594140635 1.1950155 Q 4.855275059414064 1.445913 4.855275059414064 1.9551420000000002 Q 4.855275059414064 2.2896720000000004 4.741906559414064 2.5145505000000004 Q 4.628538059414064 2.7394290000000003 4.4389710594140634 2.8509390000000003 Q 4.249404059414063 2.9624490000000003 4.026384059414063 2.9624490000000003 Q 3.840534059414063 2.9624490000000003 3.6676935594140634 2.8565145000000003 Q 3.494853059414063 2.7505800000000002 3.4093620594140632 2.542428 L 3.483702059414063 2.5833150000000002 Q 3.5766270594140632 2.7319950000000004 3.714156059414063 2.8044765000000003 Q 3.8516850594140633 2.876958 3.9966480594140634 2.876958 Q 4.245687059414063 2.876958 4.370206559414063 2.6520795 Q 4.494726059414063 2.427201 4.494726059414063 1.9551420000000002 Q 4.494726059414063 1.6540650000000001 4.446405059414063 1.453347 Q 4.398084059414064 1.252629 4.297725059414063 1.1541285 Q 4.197366059414064 1.055628 4.041252059414063 1.055628 Q 3.870270059414063 1.055628 3.723448559414063 1.2098835 Q 3.5766270594140632 1.364139 3.543174059414063 1.661499 L 3.498570059414063 1.609461 Q 3.539457059414063 1.293516 3.719731559414063 1.118817 Q 3.9000060594140633 0.944118 4.149045059414063 0.944118 M 3.5691930594140633 -4.440892098500626e-16 L 3.5691930594140633 2.717127 Q 3.5208720594140632 2.758014 3.470692559414063 2.8007595000000003 Q 3.420513059414063 2.8435050000000004 3.372192059414063 2.8843920000000005 Q 3.323871059414063 2.925279 3.271833059414063 2.9698830000000003 L 3.208644059414063 2.9438640000000005 Q 3.223512059414063 2.8918260000000005 3.229087559414063 2.8379295000000004 Q 3.2346630594140633 2.7840330000000004 3.2346630594140633 2.7282780000000004 L 3.2346630594140633 0.44604 Q 3.2346630594140633 0.278775 3.175191059414063 0.19885949999999974 Q 3.115719059414063 0.11894399999999994 2.952171059414063 0.11894399999999994 L 2.952171059414063 0.040886999999999674 Q 3.071115059414063 0.052037999999999585 3.182625059414063 0.052037999999999585 Q 3.290418059414063 0.052037999999999585 3.388918559414063 0.03902849999999969 Q 3.487419059414063 0.026018999999999792 3.5691930594140633 -4.440892098500626e-16 M 6.889285410820314 0.944118 Q 6.989644410820313 0.944118 7.065842910820313 0.9850049999999999 Q 7.142041410820314 1.025892 7.184786910820313 1.0909395 Q 7.227532410820314 1.1559869999999999 7.227532410820314 1.237761 Q 7.227532410820314 1.330686 7.169918910820313 1.401309 Q 7.112305410820314 1.471932 7.015663410820314 1.471932 Q 6.9376064108203135 1.471932 6.878134410820314 1.4217525 Q 6.8186624108203135 1.371573 6.8186624108203135 1.278648 Q 6.8186624108203135 1.208025 6.857690910820313 1.1578455 Q 6.896719410820314 1.107666 6.945040410820313 1.07793 Q 6.919021410820314 1.04076 6.866983410820314 1.04076 Q 6.751756410820313 1.04076 6.655114410820314 1.1095245 Q 6.558472410820314 1.178289 6.4915664108203135 1.286082 Q 6.424660410820313 1.393875 6.387490410820313 1.5146775000000001 Q 6.350320410820314 1.63548 6.350320410820314 1.739556 L 6.350320410820314 2.5275600000000003 Q 6.350320410820314 2.709693 6.456254910820314 2.7710235 Q 6.562189410820314 2.8323540000000005 6.744322410820313 2.8323540000000005 L 6.744322410820313 2.9104110000000003 Q 6.658831410820314 2.9066940000000003 6.502717410820313 2.9011185000000004 Q 6.346603410820314 2.8955430000000004 6.171904410820313 2.8955430000000004 Q 6.0455264108203135 2.8955430000000004 5.921006910820314 2.9011185000000004 Q 5.796487410820314 2.9066940000000003 5.733298410820313 2.9104110000000003 L 5.733298410820313 2.8323540000000005 Q 5.885695410820313 2.8323540000000005 5.950742910820313 2.7765990000000005 Q 6.015790410820314 2.7208440000000005 6.015790410820314 2.5647300000000004 L 6.015790410820314 1.401309 Q 6.015790410820314 1.234044 5.956318410820313 1.1541285 Q 5.896846410820313 1.0742129999999999 5.733298410820313 1.0742129999999999 L 5.733298410820313 0.996156 Q 5.852242410820313 1.007307 5.963752410820313 1.007307 Q 6.071545410820313 1.007307 6.170045910820313 0.9942975000000001 Q 6.2685464108203135 0.9812879999999999 6.350320410820314 0.9552689999999999 L 6.350320410820314 1.419894 Q 6.391207410820313 1.312101 6.467405910820314 1.2024495 Q 6.543604410820313 1.092798 6.651397410820314 1.0184579999999999 Q 6.759190410820313 0.944118 6.889285410820314 0.944118 M 8.510779544941407 2.93643 Q 8.358382544941406 2.93643 8.246872544941407 2.8788165 Q 8.135362544941406 2.821203 8.077749044941406 2.717127 Q 8.020135544941407 2.6130510000000005 8.020135544941407 2.4755220000000002 Q 8.020135544941407 2.311974 8.096334044941408 2.207898 Q 8.172532544941406 2.103822 8.291476544941407 2.040633 Q 8.410420544941406 1.9774440000000002 8.542374044941408 1.9346985 Q 8.674327544941407 1.8919530000000002 8.793271544941407 1.8529245 Q 8.912215544941407 1.8138960000000002 8.988414044941408 1.7618580000000001 Q 9.064612544941408 1.7098200000000001 9.064612544941408 1.6243290000000001 L 9.064612544941408 1.393875 Q 9.064612544941408 1.237761 9.018150044941407 1.1559869999999999 Q 8.971687544941407 1.0742129999999999 8.893630544941407 1.0463354999999999 Q 8.815573544941406 1.0184579999999999 8.718931544941407 1.0184579999999999 Q 8.626006544941406 1.0184579999999999 8.520072044941406 1.0444769999999999 Q 8.414137544941408 1.070496 8.350948544941406 1.15227 Q 8.421571544941408 1.167138 8.473609544941407 1.22661 Q 8.525647544941407 1.286082 8.525647544941407 1.379007 Q 8.525647544941407 1.471932 8.466175544941407 1.5258285 Q 8.406703544941406 1.579725 8.313778544941407 1.579725 Q 8.205985544941408 1.579725 8.155806044941407 1.5109605000000002 Q 8.105626544941407 1.442196 8.105626544941407 1.356705 Q 8.105626544941407 1.260063 8.153947544941406 1.200591 Q 8.202268544941408 1.141119 8.276608544941407 1.089081 Q 8.362099544941406 1.029609 8.497770044941406 0.9868634999999999 Q 8.633440544941408 0.944118 8.804422544941406 0.944118 Q 8.956819544941407 0.944118 9.064612544941408 0.9794295 Q 9.172405544941407 1.014741 9.243028544941406 1.081647 Q 9.339670544941407 1.170855 9.369406544941407 1.2990915 Q 9.399142544941407 1.427328 9.399142544941407 1.605744 L 9.399142544941407 2.6390700000000002 Q 9.399142544941407 2.7319950000000004 9.427020044941408 2.772882 Q 9.454897544941407 2.813769 9.514369544941406 2.813769 Q 9.555256544941408 2.813769 9.592426544941407 2.7951840000000003 Q 9.629596544941407 2.7765990000000005 9.681634544941407 2.7357120000000004 L 9.722521544941408 2.7989010000000003 Q 9.644464544941407 2.8583730000000003 9.573841544941407 2.8974015000000004 Q 9.503218544941408 2.93643 9.384274544941407 2.93643 Q 9.276481544941408 2.93643 9.205858544941407 2.8992600000000004 Q 9.135235544941407 2.8620900000000002 9.099924044941407 2.7896085000000004 Q 9.064612544941408 2.717127 9.064612544941408 2.605617 Q 8.964253544941407 2.772882 8.824866044941407 2.8546560000000003 Q 8.685478544941407 2.93643 8.510779544941407 2.93643 M 8.644591544941408 2.7877500000000004 Q 8.767252544941407 2.7877500000000004 8.873187044941407 2.717127 Q 8.979121544941407 2.646504 9.064612544941408 2.5052580000000004 L 9.064612544941408 1.776726 Q 9.020008544941406 1.8399150000000002 8.934517544941407 1.8826605 Q 8.849026544941406 1.9254060000000002 8.748667544941407 1.9681515000000003 Q 8.648308544941408 2.010897 8.557242044941407 2.0685105000000004 Q 8.466175544941407 2.126124 8.406703544941406 2.219049 Q 8.347231544941407 2.311974 8.347231544941407 2.4606540000000003 Q 8.347231544941407 2.6093340000000005 8.427147044941407 2.698542 Q 8.507062544941407 2.7877500000000004 8.644591544941408 2.7877500000000004 M 11.013122821640625 -4.440892098500626e-16 L 11.013122821640625 1.390158 Q 11.109764821640626 1.137402 11.282605321640625 1.04076 Q 11.455445821640625 0.944118 11.645012821640625 0.944118 Q 11.786258821640626 0.944118 11.881042321640626 0.9812879999999999 Q 11.975825821640626 1.0184579999999999 12.039014821640626 1.085364 Q 12.109637821640625 1.159704 12.139373821640625 1.271214 Q 12.169109821640625 1.382724 12.169109821640625 1.572291 L 12.169109821640625 2.5647300000000004 Q 12.169109821640625 2.7208440000000005 12.234157321640625 2.7765990000000005 Q 12.299204821640625 2.8323540000000005 12.451601821640626 2.8323540000000005 L 12.451601821640626 2.9104110000000003 Q 12.388412821640625 2.9066940000000003 12.258317821640626 2.9011185000000004 Q 12.128222821640625 2.8955430000000004 12.005561821640626 2.8955430000000004 Q 11.882900821640625 2.8955430000000004 11.765815321640625 2.9011185000000004 Q 11.648729821640625 2.9066940000000003 11.589257821640626 2.9104110000000003 L 11.589257821640626 2.8323540000000005 Q 11.723069821640625 2.8323540000000005 11.778824821640626 2.7765990000000005 Q 11.834579821640625 2.7208440000000005 11.834579821640625 2.5647300000000004 L 11.834579821640625 1.490517 Q 11.834579821640625 1.3752900000000001 11.815994821640626 1.278648 Q 11.797409821640626 1.182006 11.732362321640625 1.122534 Q 11.667314821640625 1.063062 11.533502821640626 1.063062 Q 11.381105821640626 1.063062 11.264020321640626 1.148553 Q 11.146934821640626 1.234044 11.080028821640624 1.386441 Q 11.013122821640625 1.5388380000000002 11.013122821640625 1.7358390000000001 L 11.013122821640625 2.5647300000000004 Q 11.013122821640625 2.7208440000000005 11.068877821640625 2.7765990000000005 Q 11.124632821640626 2.8323540000000005 11.258444821640625 2.8323540000000005 L 11.258444821640625 2.9104110000000003 Q 11.198972821640625 2.9066940000000003 11.081887321640625 2.9011185000000004 Q 10.964801821640625 2.8955430000000004 10.842140821640625 2.8955430000000004 Q 10.719479821640626 2.8955430000000004 10.589384821640625 2.9011185000000004 Q 10.459289821640626 2.9066940000000003 10.396100821640625 2.9104110000000003 L 10.396100821640625 2.8323540000000005 Q 10.548497821640625 2.8323540000000005 10.613545321640625 2.7765990000000005 Q 10.678592821640626 2.7208440000000005 10.678592821640626 2.5647300000000004 L 10.678592821640626 0.44604 Q 10.678592821640626 0.278775 10.619120821640625 0.19885949999999974 Q 10.559648821640625 0.11894399999999994 10.396100821640625 0.11894399999999994 L 10.396100821640625 0.040886999999999674 Q 10.515044821640625 0.052037999999999585 10.626554821640624 0.052037999999999585 Q 10.734347821640625 0.052037999999999585 10.832848321640625 0.03902849999999969 Q 10.931348821640626 0.026018999999999792 11.013122821640625 -4.440892098500626e-16 M 13.738585920117188 2.93643 Q 13.586188920117188 2.93643 13.474678920117189 2.8788165 Q 13.363168920117188 2.821203 13.305555420117187 2.717127 Q 13.247941920117189 2.6130510000000005 13.247941920117189 2.4755220000000002 Q 13.247941920117189 2.311974 13.324140420117189 2.207898 Q 13.400338920117187 2.103822 13.519282920117188 2.040633 Q 13.638226920117187 1.9774440000000002 13.770180420117189 1.9346985 Q 13.902133920117189 1.8919530000000002 14.021077920117188 1.8529245 Q 14.140021920117189 1.8138960000000002 14.216220420117189 1.7618580000000001 Q 14.29241892011719 1.7098200000000001 14.29241892011719 1.6243290000000001 L 14.29241892011719 1.393875 Q 14.29241892011719 1.237761 14.245956420117189 1.1559869999999999 Q 14.199493920117188 1.0742129999999999 14.121436920117189 1.0463354999999999 Q 14.043379920117188 1.0184579999999999 13.946737920117188 1.0184579999999999 Q 13.853812920117187 1.0184579999999999 13.747878420117187 1.0444769999999999 Q 13.641943920117189 1.070496 13.578754920117188 1.15227 Q 13.649377920117189 1.167138 13.701415920117189 1.22661 Q 13.753453920117188 1.286082 13.753453920117188 1.379007 Q 13.753453920117188 1.471932 13.693981920117189 1.5258285 Q 13.634509920117187 1.579725 13.541584920117188 1.579725 Q 13.433791920117189 1.579725 13.383612420117188 1.5109605000000002 Q 13.333432920117188 1.442196 13.333432920117188 1.356705 Q 13.333432920117188 1.260063 13.381753920117188 1.200591 Q 13.430074920117189 1.141119 13.504414920117188 1.089081 Q 13.589905920117188 1.029609 13.725576420117187 0.9868634999999999 Q 13.861246920117189 0.944118 14.032228920117188 0.944118 Q 14.184625920117188 0.944118 14.29241892011719 0.9794295 Q 14.400211920117188 1.014741 14.470834920117188 1.081647 Q 14.567476920117189 1.170855 14.597212920117189 1.2990915 Q 14.626948920117188 1.427328 14.626948920117188 1.605744 L 14.626948920117188 2.6390700000000002 Q 14.626948920117188 2.7319950000000004 14.654826420117189 2.772882 Q 14.682703920117188 2.813769 14.742175920117187 2.813769 Q 14.783062920117189 2.813769 14.820232920117189 2.7951840000000003 Q 14.857402920117188 2.7765990000000005 14.909440920117188 2.7357120000000004 L 14.95032792011719 2.7989010000000003 Q 14.872270920117188 2.8583730000000003 14.801647920117189 2.8974015000000004 Q 14.73102492011719 2.93643 14.612080920117188 2.93643 Q 14.50428792011719 2.93643 14.433664920117188 2.8992600000000004 Q 14.363041920117189 2.8620900000000002 14.327730420117188 2.7896085000000004 Q 14.29241892011719 2.717127 14.29241892011719 2.605617 Q 14.192059920117188 2.772882 14.052672420117188 2.8546560000000003 Q 13.913284920117189 2.93643 13.738585920117188 2.93643 M 13.872397920117189 2.7877500000000004 Q 13.995058920117188 2.7877500000000004 14.100993420117188 2.717127 Q 14.206927920117188 2.646504 14.29241892011719 2.5052580000000004 L 14.29241892011719 1.776726 Q 14.247814920117188 1.8399150000000002 14.162323920117188 1.8826605 Q 14.076832920117187 1.9254060000000002 13.976473920117188 1.9681515000000003 Q 13.876114920117189 2.010897 13.785048420117189 2.0685105000000004 Q 13.693981920117189 2.126124 13.634509920117187 2.219049 Q 13.575037920117188 2.311974 13.575037920117188 2.4606540000000003 Q 13.575037920117188 2.6093340000000005 13.654953420117188 2.698542 Q 13.734868920117188 2.7877500000000004 13.872397920117189 2.7877500000000004 M 16.883970196816406 0.944118 Q 17.014065196816407 0.944118 17.110707196816406 0.9812879999999999 Q 17.207349196816406 1.0184579999999999 17.270538196816407 1.085364 Q 17.341161196816408 1.159704 17.367180196816406 1.278648 Q 17.393199196816408 1.397592 17.393199196816408 1.572291 L 17.393199196816408 2.5647300000000004 Q 17.393199196816408 2.7208440000000005 17.458246696816406 2.7765990000000005 Q 17.52329419681641 2.8323540000000005 17.675691196816405 2.8323540000000005 L 17.675691196816405 2.9104110000000003 Q 17.612502196816408 2.9066940000000003 17.482407196816407 2.9011185000000004 Q 17.352312196816406 2.8955430000000004 17.229651196816405 2.8955430000000004 Q 17.106990196816408 2.8955430000000004 16.989904696816406 2.9011185000000004 Q 16.87281919681641 2.9066940000000003 16.813347196816405 2.9104110000000003 L 16.813347196816405 2.8323540000000005 Q 16.947159196816408 2.8323540000000005 17.002914196816405 2.7765990000000005 Q 17.058669196816407 2.7208440000000005 17.058669196816407 2.5647300000000004 L 17.058669196816407 1.490517 Q 17.058669196816407 1.3752900000000001 17.043801196816407 1.278648 Q 17.028933196816407 1.182006 16.969461196816408 1.122534 Q 16.909989196816408 1.063062 16.776177196816406 1.063062 Q 16.63121419681641 1.063062 16.517845696816405 1.15227 Q 16.404477196816405 1.241478 16.339429696816406 1.3957335 Q 16.274382196816408 1.549989 16.274382196816408 1.739556 L 16.274382196816408 2.5647300000000004 Q 16.274382196816408 2.7208440000000005 16.330137196816406 2.7765990000000005 Q 16.385892196816407 2.8323540000000005 16.519704196816406 2.8323540000000005 L 16.519704196816406 2.9104110000000003 Q 16.460232196816406 2.9066940000000003 16.343146696816408 2.9011185000000004 Q 16.226061196816406 2.8955430000000004 16.103400196816406 2.8955430000000004 Q 15.980739196816407 2.8955430000000004 15.850644196816406 2.9011185000000004 Q 15.720549196816407 2.9066940000000003 15.657360196816406 2.9104110000000003 L 15.657360196816406 2.8323540000000005 Q 15.809757196816406 2.8323540000000005 15.874804696816406 2.7765990000000005 Q 15.939852196816407 2.7208440000000005 15.939852196816407 2.5647300000000004 L 15.939852196816407 1.401309 Q 15.939852196816407 1.234044 15.880380196816407 1.1541285 Q 15.820908196816406 1.0742129999999999 15.657360196816406 1.0742129999999999 L 15.657360196816406 0.996156 Q 15.776304196816406 1.007307 15.887814196816407 1.007307 Q 15.995607196816406 1.007307 16.09410769681641 0.9942975000000001 Q 16.192608196816405 0.9812879999999999 16.274382196816408 0.9552689999999999 L 16.274382196816408 1.393875 Q 16.371024196816407 1.15227 16.538289196816407 1.048194 Q 16.705554196816408 0.944118 16.883970196816406 0.944118 M 18.002787196816406 0.944118 Q 18.132882196816407 0.944118 18.229524196816406 0.9812879999999999 Q 18.326166196816406 1.0184579999999999 18.389355196816407 1.085364 Q 18.459978196816408 1.159704 18.485997196816406 1.278648 Q 18.512016196816408 1.397592 18.512016196816408 1.572291 L 18.512016196816408 2.5647300000000004 Q 18.512016196816408 2.7208440000000005 18.577063696816406 2.7765990000000005 Q 18.64211119681641 2.8323540000000005 18.79450819681641 2.8323540000000005 L 18.79450819681641 2.9104110000000003 Q 18.731319196816408 2.9066940000000003 18.601224196816407 2.9011185000000004 Q 18.471129196816406 2.8955430000000004 18.348468196816405 2.8955430000000004 Q 18.225807196816408 2.8955430000000004 18.108721696816406 2.9011185000000004 Q 17.99163619681641 2.9066940000000003 17.93216419681641 2.9104110000000003 L 17.93216419681641 2.8323540000000005 Q 18.065976196816408 2.8323540000000005 18.121731196816405 2.7765990000000005 Q 18.177486196816407 2.7208440000000005 18.177486196816407 2.5647300000000004 L 18.177486196816407 1.490517 Q 18.177486196816407 1.3752900000000001 18.162618196816407 1.278648 Q 18.147750196816407 1.182006 18.088278196816407 1.122534 Q 18.028806196816408 1.063062 17.894994196816405 1.063062 Q 17.75003119681641 1.063062 17.63666269681641 1.15227 Q 17.52329419681641 1.241478 17.458246696816406 1.393875 Q 17.393199196816408 1.546272 17.393199196816408 1.7358390000000001 L 17.382048196816406 1.390158 Q 17.482407196816407 1.133685 17.653389196816406 1.0389015 Q 17.824371196816408 0.944118 18.002787196816406 0.944118 M 22.346041948945313 0.22673699999999997 Q 22.59136394894531 0.22673699999999997 22.74933644894531 0.29921849999999983 Q 22.90730894894531 0.3716999999999997 23.02996994894531 0.4683419999999998 Q 23.10430994894531 0.5240969999999998 23.14333844894531 0.4813514999999997 Q 23.18236694894531 0.43860600000000005 23.19723494894531 0.278775 L 23.282725948945313 0.278775 Q 23.275291948945313 0.4163039999999998 23.27157494894531 0.613305 Q 23.267857948945313 0.8103059999999997 23.267857948945313 1.133685 L 23.18236694894531 1.133685 Q 23.15634794894531 0.973854 23.134045948945314 0.8790705000000001 Q 23.11174394894531 0.784287 23.080149448945313 0.717381 Q 23.048554948945313 0.6504749999999997 22.996516948945313 0.5835689999999998 Q 22.881289948945312 0.43117199999999967 22.706590948945312 0.36240749999999977 Q 22.53189194894531 0.2936429999999999 22.338607948945313 0.2936429999999999 Q 22.156474948945313 0.2936429999999999 22.00965344894531 0.38470950000000004 Q 21.862831948945313 0.47577599999999975 21.756897448945313 0.6467579999999997 Q 21.650962948945313 0.8177400000000001 21.59334944894531 1.059345 Q 21.535735948945312 1.30095 21.535735948945312 1.602027 Q 21.535735948945312 1.9142550000000003 21.59892494894531 2.1540015 Q 21.66211394894531 2.3937480000000004 21.77548244894531 2.557296 Q 21.88885094894531 2.7208440000000005 22.043106448945313 2.8044765000000003 Q 22.19736194894531 2.8881090000000005 22.375777948945313 2.8881090000000005 Q 22.543042948945313 2.8881090000000005 22.725175948945314 2.821203 Q 22.90730894894531 2.754297 23.011384948945313 2.605617 Q 23.093158948945312 2.497824 23.124753448945313 2.371446 Q 23.15634794894531 2.2450680000000003 23.18236694894531 2.018331 L 23.267857948945313 2.018331 Q 23.267857948945313 2.3565780000000003 23.27157494894531 2.5628715000000004 Q 23.275291948945313 2.769165 23.282725948945313 2.9104110000000003 L 23.19723494894531 2.9104110000000003 Q 23.18236694894531 2.7505800000000002 23.147055448945313 2.709693 Q 23.11174394894531 2.6688060000000005 23.02996994894531 2.7208440000000005 Q 22.89244094894531 2.817486 22.738185448945313 2.8899675000000005 Q 22.58392994894531 2.9624490000000003 22.34232494894531 2.9624490000000003 Q 21.989209948945312 2.9624490000000003 21.723444448945312 2.8026180000000003 Q 21.45767894894531 2.642787 21.310857448945313 2.34171 Q 21.164035948945312 2.040633 21.164035948945312 1.616895 Q 21.164035948945312 1.200591 21.316432948945312 0.888363 Q 21.468829948945313 0.5761349999999998 21.734595448945313 0.4014359999999999 Q 22.00036094894531 0.22673699999999997 22.346041948945313 0.22673699999999997 M 25.383642300351564 0.944118 Q 25.484001300351565 0.944118 25.560199800351565 0.9850049999999999 Q 25.636398300351566 1.025892 25.679143800351564 1.0909395 Q 25.721889300351563 1.1559869999999999 25.721889300351563 1.237761 Q 25.721889300351563 1.330686 25.664275800351565 1.401309 Q 25.606662300351562 1.471932 25.510020300351563 1.471932 Q 25.431963300351562 1.471932 25.372491300351562 1.4217525 Q 25.313019300351563 1.371573 25.313019300351563 1.278648 Q 25.313019300351563 1.208025 25.352047800351563 1.1578455 Q 25.391076300351564 1.107666 25.439397300351565 1.07793 Q 25.413378300351564 1.04076 25.361340300351564 1.04076 Q 25.246113300351563 1.04076 25.149471300351564 1.1095245 Q 25.052829300351565 1.178289 24.985923300351566 1.286082 Q 24.919017300351562 1.393875 24.881847300351563 1.5146775000000001 Q 24.844677300351563 1.63548 24.844677300351563 1.739556 L 24.844677300351563 2.5275600000000003 Q 24.844677300351563 2.709693 24.950611800351563 2.7710235 Q 25.056546300351563 2.8323540000000005 25.238679300351563 2.8323540000000005 L 25.238679300351563 2.9104110000000003 Q 25.153188300351562 2.9066940000000003 24.997074300351564 2.9011185000000004 Q 24.840960300351565 2.8955430000000004 24.666261300351565 2.8955430000000004 Q 24.539883300351562 2.8955430000000004 24.415363800351564 2.9011185000000004 Q 24.290844300351562 2.9066940000000003 24.227655300351564 2.9104110000000003 L 24.227655300351564 2.8323540000000005 Q 24.380052300351565 2.8323540000000005 24.445099800351564 2.7765990000000005 Q 24.510147300351562 2.7208440000000005 24.510147300351562 2.5647300000000004 L 24.510147300351562 1.401309 Q 24.510147300351562 1.234044 24.450675300351563 1.1541285 Q 24.391203300351563 1.0742129999999999 24.227655300351564 1.0742129999999999 L 24.227655300351564 0.996156 Q 24.346599300351563 1.007307 24.458109300351563 1.007307 Q 24.565902300351564 1.007307 24.664402800351564 0.9942975000000001 Q 24.762903300351564 0.9812879999999999 24.844677300351563 0.9552689999999999 L 24.844677300351563 1.419894 Q 24.885564300351565 1.312101 24.961762800351565 1.2024495 Q 25.037961300351565 1.092798 25.145754300351562 1.0184579999999999 Q 25.253547300351563 0.944118 25.383642300351564 0.944118 M 28.16484043447266 0.9552689999999999 L 28.16484043447266 2.5089750000000004 Q 28.16484043447266 2.6762400000000004 28.226170934472655 2.7561555 Q 28.287501434472656 2.8360710000000005 28.447332434472656 2.8360710000000005 L 28.447332434472656 2.9141280000000003 Q 28.33210543447266 2.9029770000000004 28.216878434472658 2.9029770000000004 Q 28.109085434472657 2.9029770000000004 28.010584934472657 2.9141280000000003 Q 27.912084434472657 2.925279 27.830310434472658 2.9550150000000004 L 27.830310434472658 2.5164090000000003 Q 27.737385434472657 2.758014 27.56826193447266 2.8602315000000003 Q 27.399138434472658 2.9624490000000003 27.220722434472655 2.9624490000000003 Q 27.09062743447266 2.9624490000000003 26.993985434472656 2.925279 Q 26.897343434472656 2.8881090000000005 26.83415443447266 2.821203 Q 26.763531434472657 2.7468630000000003 26.737512434472656 2.6279190000000003 Q 26.711493434472658 2.5089750000000004 26.711493434472658 2.334276 L 26.711493434472658 1.401309 Q 26.711493434472658 1.234044 26.65202143447266 1.1541285 Q 26.59254943447266 1.0742129999999999 26.429001434472656 1.0742129999999999 L 26.429001434472656 0.996156 Q 26.547945434472656 1.007307 26.659455434472658 1.007307 Q 26.767248434472656 1.007307 26.865748934472656 0.9942975000000001 Q 26.964249434472656 0.9812879999999999 27.04602343447266 0.9552689999999999 L 27.04602343447266 2.4160500000000003 Q 27.04602343447266 2.531277 27.06089143447266 2.6279190000000003 Q 27.07575943447266 2.7245610000000005 27.135231434472658 2.7840330000000004 Q 27.194703434472657 2.8435050000000004 27.328515434472656 2.8435050000000004 Q 27.473478434472657 2.8435050000000004 27.586846934472657 2.754297 Q 27.700215434472657 2.665089 27.765262934472656 2.5126920000000004 Q 27.830310434472658 2.3602950000000003 27.830310434472658 2.1707280000000004 L 27.830310434472658 1.401309 Q 27.830310434472658 1.234044 27.770838434472658 1.1541285 Q 27.71136643447266 1.0742129999999999 27.547818434472656 1.0742129999999999 L 27.547818434472656 0.996156 Q 27.66676243447266 1.007307 27.778272434472658 1.007307 Q 27.886065434472656 1.007307 27.984565934472656 0.9942975000000001 Q 28.083066434472656 0.9812879999999999 28.16484043447266 0.9552689999999999 M 30.756420750234376 0.977571 L 29.682207750234376 2.8546560000000003 L 30.091077750234376 2.8546560000000003 Q 30.23975775023438 2.8546560000000003 30.349409250234377 2.7951840000000003 Q 30.45906075023438 2.7357120000000004 30.525966750234378 2.6037585 Q 30.592872750234378 2.4718050000000003 30.607740750234377 2.256219 L 30.69323175023438 2.256219 Q 30.69323175023438 2.494107 30.696948750234377 2.657655 Q 30.70066575023438 2.821203 30.70809975023438 2.925279 Q 30.544551750234376 2.9178450000000002 30.36799425023438 2.9141280000000003 Q 30.191436750234377 2.9104110000000003 30.016737750234377 2.9104110000000003 Q 29.83088775023438 2.9104110000000003 29.637603750234376 2.9159865000000003 Q 29.444319750234378 2.921562 29.265903750234376 2.928996 L 30.340116750234376 1.051911 L 29.931246750234376 1.051911 Q 29.767698750234377 1.051911 29.658047250234375 1.111383 Q 29.548395750234377 1.170855 29.49078225023438 1.3028085 Q 29.433168750234376 1.434762 29.414583750234378 1.6503480000000001 L 29.329092750234377 1.6503480000000001 Q 29.329092750234377 1.408743 29.325375750234375 1.2470535 Q 29.321658750234377 1.085364 29.314224750234377 0.9812879999999999 Q 29.477772750234376 0.9887219999999999 29.654330250234377 0.9924389999999998 Q 29.83088775023438 0.996156 30.00558675023438 0.996156 Q 30.191436750234377 0.996156 30.384720750234376 0.9905804999999999 Q 30.578004750234378 0.9850049999999999 30.756420750234376 0.977571" fill="#ffffff" fill-rule="nonzero"></path></g><g><path d=" M 4.884800052480475 5.597292960000001 Q 4.884800052480475 5.451042960000001 4.9354250524804755 5.310417960000001 Q 4.986050052480476 5.169792960000001 5.082800052480476 5.0539179600000015 Q 5.179550052480475 4.938042960000001 5.321300052480475 4.869417960000002 Q 5.463050052480475 4.800792960000001 5.643050052480476 4.800792960000001 Q 5.856800052480476 4.800792960000001 6.008675052480475 4.898667960000001 Q 6.160550052480476 4.996542960000001 6.232550052480476 5.149542960000002 L 6.1088000524804755 5.226042960000001 Q 6.057050052480475 5.120292960000001 5.978300052480476 5.058417960000001 Q 5.899550052480476 4.996542960000001 5.810675052480475 4.969542960000001 Q 5.721800052480475 4.942542960000001 5.634050052480475 4.942542960000001 Q 5.490050052480475 4.942542960000001 5.379800052480475 4.999917960000001 Q 5.269550052480476 5.057292960000002 5.1941750524804755 5.152917960000001 Q 5.118800052480475 5.248542960000001 5.080550052480476 5.366667960000001 Q 5.042300052480475 5.484792960000001 5.042300052480475 5.606292960000001 Q 5.042300052480475 5.739042960000001 5.087300052480475 5.860542960000001 Q 5.132300052480475 5.982042960000001 5.213300052480475 6.075417960000001 Q 5.294300052480475 6.168792960000001 5.403425052480475 6.223917960000001 Q 5.512550052480475 6.279042960000001 5.640800052480476 6.279042960000001 Q 5.730800052480475 6.279042960000001 5.825300052480475 6.247542960000001 Q 5.9198000524804755 6.216042960000001 6.001925052480475 6.150792960000001 Q 6.0840500524804755 6.0855429600000015 6.133550052480476 5.982042960000001 L 6.264050052480475 6.049542960000001 Q 6.214550052480476 6.168792960000001 6.111050052480476 6.252042960000002 Q 6.007550052480475 6.335292960000001 5.880425052480476 6.378042960000001 Q 5.753300052480475 6.420792960000001 5.631800052480475 6.420792960000001 Q 5.467550052480475 6.420792960000001 5.330300052480475 6.349917960000001 Q 5.1930500524804755 6.279042960000001 5.092925052480475 6.160917960000001 Q 4.992800052480475 6.042792960000002 4.938800052480476 5.895417960000001 Q 4.884800052480475 5.748042960000001 4.884800052480475 5.597292960000001 M 7.3625093249414135 6.429792960000001 Q 7.236509324941413 6.429792960000001 7.129634324941414 6.381417960000001 Q 7.022759324941413 6.333042960000001 6.945134324941413 6.2486679600000015 Q 6.867509324941413 6.164292960000001 6.824759324941413 6.055167960000001 Q 6.782009324941413 5.9460429600000015 6.782009324941413 5.824542960000001 Q 6.782009324941413 5.698542960000001 6.824759324941413 5.589417960000001 Q 6.867509324941413 5.480292960000001 6.946259324941413 5.395917960000001 Q 7.025009324941413 5.311542960000001 7.131884324941413 5.263167960000001 Q 7.238759324941413 5.214792960000001 7.364759324941414 5.214792960000001 Q 7.490759324941413 5.214792960000001 7.5965093249414135 5.263167960000001 Q 7.702259324941413 5.311542960000001 7.781009324941413 5.395917960000001 Q 7.859759324941413 5.480292960000001 7.902509324941413 5.589417960000001 Q 7.945259324941413 5.698542960000001 7.945259324941413 5.824542960000001 Q 7.945259324941413 5.9460429600000015 7.902509324941413 6.055167960000001 Q 7.859759324941413 6.164292960000001 7.782134324941413 6.2486679600000015 Q 7.704509324941413 6.333042960000001 7.5976343249414136 6.381417960000001 Q 7.490759324941413 6.429792960000001 7.3625093249414135 6.429792960000001 M 6.937259324941413 5.8267929600000015 Q 6.937259324941413 5.957292960000001 6.994634324941413 6.064167960000002 Q 7.052009324941413 6.171042960000001 7.148759324941413 6.232917960000001 Q 7.245509324941413 6.294792960000001 7.3625093249414135 6.294792960000001 Q 7.4795093249414135 6.294792960000001 7.576259324941413 6.231792960000001 Q 7.673009324941413 6.168792960000001 7.731509324941413 6.059667960000001 Q 7.790009324941414 5.950542960000001 7.790009324941414 5.822292960000001 Q 7.790009324941414 5.691792960000001 7.731509324941413 5.583792960000001 Q 7.673009324941413 5.4757929600000015 7.576259324941413 5.412792960000001 Q 7.4795093249414135 5.349792960000001 7.3625093249414135 5.349792960000001 Q 7.245509324941413 5.349792960000001 7.1498843249414135 5.415042960000001 Q 7.054259324941413 5.480292960000001 6.995759324941413 5.587167960000001 Q 6.937259324941413 5.694042960000001 6.937259324941413 5.8267929600000015 M 10.305960906972663 6.407292960000001 L 10.152960906972664 6.407292960000001 L 10.152960906972664 5.752542960000001 Q 10.152960906972664 5.547792960000001 10.087710906972664 5.451042960000001 Q 10.022460906972663 5.354292960000001 9.894210906972663 5.354292960000001 Q 9.761460906972664 5.354292960000001 9.656835906972663 5.448792960000001 Q 9.552210906972663 5.543292960000001 9.509460906972663 5.691792960000001 L 9.509460906972663 6.407292960000001 L 9.356460906972664 6.407292960000001 L 9.356460906972664 5.752542960000001 Q 9.356460906972664 5.5455429600000015 9.293460906972664 5.449917960000001 Q 9.230460906972663 5.354292960000001 9.099960906972663 5.354292960000001 Q 8.969460906972664 5.354292960000001 8.863710906972663 5.446542960000001 Q 8.757960906972663 5.538792960000001 8.715210906972663 5.689542960000001 L 8.715210906972663 6.407292960000001 L 8.562210906972663 6.407292960000001 L 8.562210906972663 5.235042960000001 L 8.701710906972663 5.235042960000001 L 8.701710906972663 5.5005429600000015 Q 8.775960906972664 5.363292960000001 8.891835906972663 5.2890429600000015 Q 9.007710906972664 5.214792960000001 9.149460906972664 5.214792960000001 Q 9.295710906972664 5.214792960000001 9.385710906972664 5.298042960000001 Q 9.475710906972663 5.3812929600000015 9.495960906972662 5.516292960000001 Q 9.576960906972664 5.367792960000001 9.690585906972663 5.291292960000002 Q 9.804210906972664 5.214792960000001 9.948210906972664 5.214792960000001 Q 10.047210906972664 5.214792960000001 10.115835906972663 5.250792960000001 Q 10.184460906972664 5.286792960000001 10.226085906972664 5.353167960000001 Q 10.267710906972663 5.419542960000001 10.286835906972664 5.512917960000001 Q 10.305960906972663 5.606292960000001 10.305960906972663 5.721042960000001 L 10.305960906972663 6.407292960000001 M 11.588992689199227 6.429792960000001 Q 11.442742689199227 6.429792960000001 11.326867689199226 6.353292960000001 Q 11.210992689199227 6.276792960000002 11.143492689199226 6.164292960000001 L 11.143492689199226 6.886542960000002 L 10.990492689199225 6.886542960000002 L 10.990492689199225 5.235042960000001 L 11.127742689199227 5.235042960000001 L 11.127742689199227 5.462292960000001 Q 11.197492689199226 5.352042960000001 11.314492689199227 5.283417960000001 Q 11.431492689199226 5.214792960000001 11.564242689199226 5.214792960000001 Q 11.685742689199227 5.214792960000001 11.786992689199227 5.265417960000001 Q 11.888242689199226 5.316042960000001 11.962492689199227 5.401542960000001 Q 12.036742689199226 5.487042960000001 12.078367689199226 5.596167960000001 Q 12.119992689199226 5.705292960000001 12.119992689199226 5.822292960000001 Q 12.119992689199226 5.986542960000001 12.053617689199227 6.124917960000001 Q 11.987242689199226 6.263292960000001 11.867992689199227 6.346542960000002 Q 11.748742689199226 6.429792960000001 11.588992689199227 6.429792960000001 M 11.546242689199227 6.294792960000001 Q 11.642992689199227 6.294792960000001 11.719492689199226 6.255417960000001 Q 11.795992689199226 6.216042960000001 11.851117689199226 6.148542960000001 Q 11.906242689199226 6.081042960000001 11.935492689199226 5.996667960000001 Q 11.964742689199227 5.912292960000001 11.964742689199227 5.822292960000001 Q 11.964742689199227 5.727792960000001 11.932117689199226 5.642292960000001 Q 11.899492689199226 5.556792960000001 11.838742689199226 5.491542960000001 Q 11.777992689199227 5.426292960000001 11.699242689199226 5.388042960000001 Q 11.620492689199226 5.349792960000001 11.528242689199226 5.349792960000001 Q 11.469742689199226 5.349792960000001 11.406742689199227 5.372292960000001 Q 11.343742689199226 5.394792960000001 11.286367689199226 5.436417960000001 Q 11.228992689199226 5.478042960000002 11.190742689199226 5.529792960000001 Q 11.152492689199226 5.581542960000001 11.143492689199226 5.6400429600000015 L 11.143492689199226 6.000042960000001 Q 11.179492689199225 6.083292960000001 11.240242689199226 6.149667960000001 Q 11.300992689199227 6.216042960000001 11.380867689199226 6.255417960000001 Q 11.460742689199225 6.294792960000001 11.546242689199227 6.294792960000001 M 12.72802007689454 5.923542960000002 L 12.72802007689454 5.235042960000001 L 12.881020076894538 5.235042960000001 L 12.881020076894538 5.896542960000001 Q 12.881020076894538 6.096792960000001 12.949645076894539 6.195792960000001 Q 13.018270076894538 6.294792960000001 13.15327007689454 6.294792960000001 Q 13.24327007689454 6.294792960000001 13.32764507689454 6.255417960000001 Q 13.412020076894539 6.216042960000001 13.47727007689454 6.142917960000001 Q 13.542520076894538 6.069792960000001 13.57627007689454 5.973042960000001 L 13.57627007689454 5.235042960000001 L 13.729270076894538 5.235042960000001 L 13.729270076894538 6.222792960000001 Q 13.729270076894538 6.254292960000001 13.742770076894539 6.268917960000001 Q 13.75627007689454 6.283542960000001 13.783270076894539 6.285792960000001 L 13.783270076894539 6.407292960000001 Q 13.75627007689454 6.409542960000001 13.740520076894539 6.410667960000001 Q 13.72477007689454 6.411792960000001 13.71127007689454 6.411792960000001 Q 13.66627007689454 6.407292960000001 13.633645076894538 6.375792960000001 Q 13.601020076894539 6.3442929600000015 13.598770076894539 6.299292960000002 L 13.594270076894539 6.141792960000001 Q 13.51777007689454 6.276792960000002 13.38614507689454 6.353292960000001 Q 13.254520076894538 6.429792960000001 13.10152007689454 6.429792960000001 Q 12.91702007689454 6.429792960000001 12.82252007689454 6.301542960000001 Q 12.72802007689454 6.173292960000001 12.72802007689454 5.923542960000002 M 14.998774393300788 6.351042960000001 Q 14.98077439330079 6.357792960000001 14.94252439330079 6.375792960000001 Q 14.904274393300788 6.393792960000002 14.85027439330079 6.407292960000001 Q 14.79627439330079 6.420792960000001 14.733274393300789 6.420792960000001 Q 14.668024393300788 6.420792960000001 14.61064939330079 6.396042960000001 Q 14.55327439330079 6.371292960000002 14.51952439330079 6.3206679600000015 Q 14.485774393300789 6.270042960000001 14.485774393300789 6.195792960000001 L 14.485774393300789 5.356542960000001 L 14.32377439330079 5.356542960000001 L 14.32377439330079 5.235042960000001 L 14.485774393300789 5.235042960000001 L 14.485774393300789 4.839042960000001 L 14.638774393300789 4.839042960000001 L 14.638774393300789 5.235042960000001 L 14.908774393300789 5.235042960000001 L 14.908774393300789 5.356542960000001 L 14.638774393300789 5.356542960000001 L 14.638774393300789 6.153042960000001 Q 14.64327439330079 6.216042960000001 14.684899393300789 6.247542960000001 Q 14.726524393300789 6.279042960000001 14.780524393300789 6.279042960000001 Q 14.84352439330079 6.279042960000001 14.89527439330079 6.257667960000001 Q 14.94702439330079 6.236292960000001 14.958274393300789 6.2272929600000015 L 14.998774393300788 6.351042960000001 M 16.036653953847665 6.429792960000001 Q 15.910653953847664 6.429792960000001 15.802653953847665 6.381417960000001 Q 15.694653953847665 6.333042960000001 15.615903953847665 6.2486679600000015 Q 15.537153953847664 6.164292960000001 15.493278953847664 6.054042960000001 Q 15.449403953847664 5.9437929600000015 15.449403953847664 5.817792960000001 Q 15.449403953847664 5.653542960000001 15.524778953847665 5.516292960000001 Q 15.600153953847665 5.379042960000001 15.732903953847664 5.296917960000001 Q 15.865653953847664 5.214792960000001 16.034403953847665 5.214792960000001 Q 16.207653953847664 5.214792960000001 16.337028953847664 5.298042960000001 Q 16.466403953847664 5.3812929600000015 16.540653953847663 5.517417960000001 Q 16.614903953847666 5.653542960000001 16.614903953847666 5.815542960000001 Q 16.614903953847666 5.833542960000001 16.614903953847666 5.8504179600000015 Q 16.614903953847666 5.867292960000001 16.612653953847666 5.876292960000002 L 15.609153953847665 5.876292960000002 Q 15.620403953847664 6.002292960000001 15.680028953847664 6.100167960000001 Q 15.739653953847665 6.198042960000001 15.835278953847665 6.255417960000001 Q 15.930903953847665 6.312792960000001 16.043403953847665 6.312792960000001 Q 16.158153953847666 6.312792960000001 16.260528953847665 6.254292960000001 Q 16.362903953847663 6.195792960000001 16.403403953847665 6.101292960000001 L 16.536153953847666 6.137292960000002 Q 16.500153953847665 6.220542960000001 16.425903953847666 6.288042960000001 Q 16.351653953847663 6.355542960000001 16.251528953847664 6.392667960000002 Q 16.151403953847666 6.429792960000001 16.036653953847665 6.429792960000001 M 15.604653953847665 5.766042960000001 L 16.470903953847664 5.766042960000001 Q 16.461903953847663 5.637792960000001 16.402278953847663 5.541042960000001 Q 16.342653953847666 5.444292960000001 16.247028953847664 5.389167960000001 Q 16.151403953847666 5.334042960000001 16.036653953847665 5.334042960000001 Q 15.921903953847664 5.334042960000001 15.827403953847664 5.389167960000001 Q 15.732903953847664 5.444292960000001 15.673278953847664 5.542167960000001 Q 15.613653953847665 5.6400429600000015 15.604653953847665 5.766042960000001 M 17.796615423574227 5.370042960000001 Q 17.64361542357423 5.374542960000001 17.527740423574226 5.455542960000001 Q 17.411865423574227 5.536542960000001 17.36461542357423 5.678292960000001 L 17.36461542357423 6.407292960000001 L 17.211615423574226 6.407292960000001 L 17.211615423574226 5.235042960000001 L 17.35561542357423 5.235042960000001 L 17.35561542357423 5.516292960000001 Q 17.416365423574227 5.392542960000001 17.516490423574226 5.316042960000001 Q 17.616615423574228 5.239542960000001 17.72911542357423 5.230542960000001 Q 17.751615423574226 5.228292960000001 17.768490423574228 5.228292960000001 Q 17.785365423574227 5.228292960000001 17.796615423574227 5.230542960000001 L 17.796615423574227 5.370042960000001 M 20.349168001699226 6.267792960000001 L 20.349168001699226 6.407292960000001 L 19.275918001699228 6.407292960000001 L 19.275918001699228 4.809792960000001 L 20.32891800169923 4.809792960000001 L 20.32891800169923 4.949292960000001 L 19.433418001699227 4.949292960000001 L 19.433418001699227 5.525292960000002 L 20.21416800169923 5.525292960000002 L 20.21416800169923 5.658042960000001 L 19.433418001699227 5.658042960000001 L 19.433418001699227 6.267792960000001 L 20.349168001699226 6.267792960000001 M 21.94944429076173 6.407292960000001 L 21.796444290761727 6.407292960000001 L 21.796444290761727 5.752542960000001 Q 21.796444290761727 5.5455429600000015 21.735694290761728 5.449917960000001 Q 21.67494429076173 5.354292960000001 21.544444290761728 5.354292960000001 Q 21.454444290761728 5.354292960000001 21.36669429076173 5.398167960000001 Q 21.27894429076173 5.442042960000001 21.212569290761728 5.517417960000001 Q 21.146194290761727 5.5927929600000015 21.11694429076173 5.689542960000001 L 21.11694429076173 6.407292960000001 L 20.963944290761727 6.407292960000001 L 20.963944290761727 5.235042960000001 L 21.10344429076173 5.235042960000001 L 21.10344429076173 5.5005429600000015 Q 21.150694290761727 5.415042960000001 21.227194290761727 5.350917960000001 Q 21.30369429076173 5.286792960000001 21.40044429076173 5.250792960000001 Q 21.49719429076173 5.214792960000001 21.600694290761727 5.214792960000001 Q 21.697444290761727 5.214792960000001 21.76494429076173 5.250792960000001 Q 21.832444290761728 5.286792960000001 21.87294429076173 5.353167960000001 Q 21.913444290761728 5.419542960000001 21.93144429076173 5.512917960000001 Q 21.94944429076173 5.606292960000001 21.94944429076173 5.721042960000001 L 21.94944429076173 6.407292960000001 M 23.106479368886728 6.423042960000001 Q 22.987229368886727 6.423042960000001 22.88597936888673 6.373542960000001 Q 22.78472936888673 6.324042960000002 22.71160436888673 6.239667960000001 Q 22.638479368886728 6.1552929600000015 22.59797936888673 6.047292960000001 Q 22.557479368886728 5.939292960000001 22.557479368886728 5.824542960000001 Q 22.557479368886728 5.700792960000001 22.596854368886728 5.591667960000001 Q 22.636229368886728 5.482542960000001 22.70935436888673 5.397042960000001 Q 22.78247936888673 5.311542960000001 22.88147936888673 5.263167960000001 Q 22.98047936888673 5.214792960000001 23.101979368886727 5.214792960000001 Q 23.25272936888673 5.214792960000001 23.36410436888673 5.291292960000002 Q 23.475479368886727 5.367792960000001 23.551979368886727 5.480292960000001 L 23.551979368886727 5.235042960000001 L 23.68922936888673 5.235042960000001 L 23.68922936888673 6.411792960000001 Q 23.68922936888673 6.573792960000001 23.611604368886727 6.685167960000001 Q 23.53397936888673 6.796542960000001 23.40235436888673 6.852792960000001 Q 23.270729368886727 6.909042960000002 23.115479368886728 6.909042960000002 Q 22.915229368886727 6.909042960000002 22.79147936888673 6.837042960000002 Q 22.66772936888673 6.7650429600000015 22.58897936888673 6.643542960000001 L 22.68347936888673 6.569292960000001 Q 22.75322936888673 6.679542960000001 22.869104368886727 6.733542960000001 Q 22.984979368886727 6.7875429600000015 23.115479368886728 6.7875429600000015 Q 23.23022936888673 6.7875429600000015 23.325854368886727 6.745917960000002 Q 23.42147936888673 6.704292960000001 23.47885436888673 6.621042960000001 Q 23.53622936888673 6.537792960000001 23.53622936888673 6.411792960000001 L 23.53622936888673 6.1800429600000015 Q 23.468729368886727 6.290292960000001 23.35172936888673 6.356667960000001 Q 23.23472936888673 6.423042960000001 23.106479368886728 6.423042960000001 M 23.14922936888673 6.294792960000001 Q 23.21897936888673 6.294792960000001 23.28310436888673 6.270042960000001 Q 23.34722936888673 6.245292960000001 23.401229368886728 6.2036679600000015 Q 23.455229368886727 6.162042960000001 23.491229368886728 6.1102929600000015 Q 23.52722936888673 6.058542960000001 23.53622936888673 6.004542960000001 L 23.53622936888673 5.642292960000001 Q 23.50247936888673 5.556792960000001 23.43947936888673 5.490417960000001 Q 23.376479368886727 5.424042960000001 23.29660436888673 5.386917960000002 Q 23.21672936888673 5.349792960000001 23.13122936888673 5.349792960000001 Q 23.03222936888673 5.349792960000001 22.954604368886727 5.391417960000001 Q 22.87697936888673 5.433042960000002 22.82410436888673 5.501667960000001 Q 22.77122936888673 5.5702929600000015 22.741979368886728 5.655792960000001 Q 22.712729368886727 5.741292960000001 22.712729368886727 5.8267929600000015 Q 22.712729368886727 5.9212929600000015 22.746479368886728 6.005667960000001 Q 22.78022936888673 6.090042960000002 22.83985436888673 6.1564179600000015 Q 22.899479368886727 6.222792960000001 22.979354368886728 6.258792960000001 Q 23.05922936888673 6.294792960000001 23.14922936888673 6.294792960000001 M 24.38720402220704 6.407292960000001 L 24.38720402220704 5.235042960000001 L 24.540204022207043 5.235042960000001 L 24.540204022207043 6.407292960000001 L 24.38720402220704 6.407292960000001 M 24.38720402220704 4.989792960000001 L 24.38720402220704 4.764792960000001 L 24.540204022207043 4.764792960000001 L 24.540204022207043 4.989792960000001 L 24.38720402220704 4.989792960000001 M 26.223761072988292 6.407292960000001 L 26.07076107298829 6.407292960000001 L 26.07076107298829 5.752542960000001 Q 26.07076107298829 5.5455429600000015 26.01001107298829 5.449917960000001 Q 25.949261072988293 5.354292960000001 25.81876107298829 5.354292960000001 Q 25.72876107298829 5.354292960000001 25.64101107298829 5.398167960000001 Q 25.553261072988292 5.442042960000001 25.48688607298829 5.517417960000001 Q 25.42051107298829 5.5927929600000015 25.391261072988293 5.689542960000001 L 25.391261072988293 6.407292960000001 L 25.23826107298829 6.407292960000001 L 25.23826107298829 5.235042960000001 L 25.377761072988292 5.235042960000001 L 25.377761072988292 5.5005429600000015 Q 25.42501107298829 5.415042960000001 25.50151107298829 5.350917960000001 Q 25.578011072988293 5.286792960000001 25.674761072988293 5.250792960000001 Q 25.771511072988293 5.214792960000001 25.87501107298829 5.214792960000001 Q 25.97176107298829 5.214792960000001 26.039261072988293 5.250792960000001 Q 26.10676107298829 5.286792960000001 26.147261072988293 5.353167960000001 Q 26.18776107298829 5.419542960000001 26.20576107298829 5.512917960000001 Q 26.223761072988292 5.606292960000001 26.223761072988292 5.721042960000001 L 26.223761072988292 6.407292960000001 M 27.416796151113292 6.429792960000001 Q 27.29079615111329 6.429792960000001 27.18279615111329 6.381417960000001 Q 27.07479615111329 6.333042960000001 26.99604615111329 6.2486679600000015 Q 26.91729615111329 6.164292960000001 26.87342115111329 6.054042960000001 Q 26.82954615111329 5.9437929600000015 26.82954615111329 5.817792960000001 Q 26.82954615111329 5.653542960000001 26.904921151113292 5.516292960000001 Q 26.98029615111329 5.379042960000001 27.11304615111329 5.296917960000001 Q 27.245796151113293 5.214792960000001 27.414546151113292 5.214792960000001 Q 27.58779615111329 5.214792960000001 27.71717115111329 5.298042960000001 Q 27.84654615111329 5.3812929600000015 27.92079615111329 5.517417960000001 Q 27.995046151113293 5.653542960000001 27.995046151113293 5.815542960000001 Q 27.995046151113293 5.833542960000001 27.995046151113293 5.8504179600000015 Q 27.995046151113293 5.867292960000001 27.992796151113293 5.876292960000002 L 26.98929615111329 5.876292960000002 Q 27.00054615111329 6.002292960000001 27.06017115111329 6.100167960000001 Q 27.11979615111329 6.198042960000001 27.21542115111329 6.255417960000001 Q 27.311046151113292 6.312792960000001 27.423546151113293 6.312792960000001 Q 27.538296151113293 6.312792960000001 27.640671151113292 6.254292960000001 Q 27.74304615111329 6.195792960000001 27.783546151113292 6.101292960000001 L 27.916296151113293 6.137292960000002 Q 27.880296151113292 6.220542960000001 27.806046151113293 6.288042960000001 Q 27.73179615111329 6.355542960000001 27.63167115111329 6.392667960000002 Q 27.531546151113293 6.429792960000001 27.416796151113292 6.429792960000001 M 26.98479615111329 5.766042960000001 L 27.85104615111329 5.766042960000001 Q 27.84204615111329 5.637792960000001 27.78242115111329 5.541042960000001 Q 27.722796151113293 5.444292960000001 27.62717115111329 5.389167960000001 Q 27.531546151113293 5.334042960000001 27.416796151113292 5.334042960000001 Q 27.30204615111329 5.334042960000001 27.20754615111329 5.389167960000001 Q 27.11304615111329 5.444292960000001 27.05342115111329 5.542167960000001 Q 26.99379615111329 5.6400429600000015 26.98479615111329 5.766042960000001 M 29.098007620839855 6.429792960000001 Q 28.972007620839854 6.429792960000001 28.864007620839853 6.381417960000001 Q 28.756007620839853 6.333042960000001 28.677257620839853 6.2486679600000015 Q 28.598507620839854 6.164292960000001 28.554632620839854 6.054042960000001 Q 28.510757620839854 5.9437929600000015 28.510757620839854 5.817792960000001 Q 28.510757620839854 5.653542960000001 28.586132620839855 5.516292960000001 Q 28.661507620839853 5.379042960000001 28.794257620839854 5.296917960000001 Q 28.927007620839856 5.214792960000001 29.095757620839855 5.214792960000001 Q 29.269007620839854 5.214792960000001 29.398382620839854 5.298042960000001 Q 29.527757620839854 5.3812929600000015 29.602007620839853 5.517417960000001 Q 29.676257620839856 5.653542960000001 29.676257620839856 5.815542960000001 Q 29.676257620839856 5.833542960000001 29.676257620839856 5.8504179600000015 Q 29.676257620839856 5.867292960000001 29.674007620839856 5.876292960000002 L 28.670507620839853 5.876292960000002 Q 28.681757620839853 6.002292960000001 28.741382620839854 6.100167960000001 Q 28.801007620839854 6.198042960000001 28.896632620839853 6.255417960000001 Q 28.992257620839855 6.312792960000001 29.104757620839855 6.312792960000001 Q 29.219507620839856 6.312792960000001 29.321882620839855 6.254292960000001 Q 29.424257620839853 6.195792960000001 29.464757620839855 6.101292960000001 L 29.597507620839856 6.137292960000002 Q 29.561507620839855 6.220542960000001 29.487257620839856 6.288042960000001 Q 29.413007620839853 6.355542960000001 29.312882620839854 6.392667960000002 Q 29.212757620839856 6.429792960000001 29.098007620839855 6.429792960000001 M 28.666007620839853 5.766042960000001 L 29.532257620839854 5.766042960000001 Q 29.523257620839853 5.637792960000001 29.463632620839853 5.541042960000001 Q 29.404007620839856 5.444292960000001 29.308382620839854 5.389167960000001 Q 29.212757620839856 5.334042960000001 29.098007620839855 5.334042960000001 Q 28.983257620839854 5.334042960000001 28.888757620839854 5.389167960000001 Q 28.794257620839854 5.444292960000001 28.734632620839854 5.542167960000001 Q 28.675007620839853 5.6400429600000015 28.666007620839853 5.766042960000001 M 30.857969090566417 5.370042960000001 Q 30.70496909056642 5.374542960000001 30.589094090566416 5.455542960000001 Q 30.473219090566417 5.536542960000001 30.42596909056642 5.678292960000001 L 30.42596909056642 6.407292960000001 L 30.272969090566416 6.407292960000001 L 30.272969090566416 5.235042960000001 L 30.41696909056642 5.235042960000001 L 30.41696909056642 5.516292960000001 Q 30.477719090566417 5.392542960000001 30.577844090566416 5.316042960000001 Q 30.677969090566418 5.239542960000001 30.79046909056642 5.230542960000001 Q 30.812969090566416 5.228292960000001 30.829844090566418 5.228292960000001 Q 30.846719090566417 5.228292960000001 30.857969090566417 5.230542960000001 L 30.857969090566417 5.370042960000001" fill="#fbe5c1" fill-rule="nonzero"></path></g></g><defs><clipPath id="SvgjsClipPath58686"><path d=" M 31.293998753652353 -2.495540582269637 h 19.54544913502534 v 11.398374124539275 h -19.54544913502534 Z"></path></clipPath><clipPath id="SvgjsClipPath5868488f22ffe-c174-4266-aead-cc28abd37c34"><path d=" M 31.293998753652353 -2.495540582269637 L 50.8394478886777 -2.495540582269637 L 50.8394478886777 8.902833542269638 L 31.293998753652353 8.902833542269638 Z"></path></clipPath></defs></svg>